# Blender 4.4.3
# slime.png
mtllib slime.mtl
o Slime
v 0.169093 0.495505 -0.393886
v 0.146640 0.599594 -0.339503
v 0.183435 0.377351 -0.428014
v 0.418723 0.495832 0.000000
v 0.392600 0.494669 -0.169093
v 0.361654 0.606525 0.000000
v 0.393362 0.495239 0.169093
v 0.427871 0.377413 -0.183435
v 0.338807 0.599297 -0.146640
v 0.339503 0.599594 0.146640
v 0.427948 0.377413 0.183435
v 0.169093 0.495505 0.393886
v 0.183435 0.377545 0.428014
v 0.146640 0.599594 0.339503
v 0.187578 0.003173 0.000000
v 0.174577 0.009285 -0.174577
v 0.174577 0.009058 0.174577
v 0.146179 0.746402 0.000000
v 0.137496 0.729860 0.137496
v 0.137496 0.729860 -0.137496
v 0.193221 0.099495 0.451158
v 0.174577 0.054705 0.408585
v 0.197150 0.166601 0.460016
v 0.483516 0.102811 0.000000
v 0.451158 0.103096 -0.193221
v 0.492874 0.173001 0.000000
v 0.451158 0.102982 0.193221
v 0.438301 0.055797 0.000000
v 0.408585 0.058041 -0.174577
v 0.460216 0.172626 -0.197150
v 0.460142 0.172717 0.197150
v 0.408585 0.057944 0.174577
v 0.193221 0.102201 -0.451158
v 0.197150 0.172959 -0.460016
v 0.174577 0.056055 -0.408585
v 0.161577 0.027094 -0.320368
v 0.131099 0.680752 -0.256746
v 0.361457 0.174055 -0.361441
v 0.354316 0.103191 -0.354316
v 0.320368 0.059850 -0.320368
v 0.320368 0.028746 0.161577
v 0.344047 0.024495 0.000000
v 0.320368 0.028842 -0.161577
v 0.256677 0.680712 -0.131099
v 0.273378 0.693934 0.000000
v 0.256746 0.680752 0.131099
v 0.361441 0.170053 0.361441
v 0.354316 0.102496 0.354316
v 0.320368 0.059433 0.320368
v 0.161577 0.026327 0.320368
v 0.131099 0.680752 0.256746
v 0.267955 0.592191 -0.268175
v 0.309550 0.493405 -0.309837
v 0.336267 0.377209 -0.336297
v 0.268175 0.592357 0.268175
v 0.309837 0.493696 0.309837
v 0.336272 0.377355 0.336297
v 0.192006 0.258443 0.448015
v 0.448414 0.262257 -0.192006
v 0.480016 0.262464 0.000000
v 0.448350 0.262292 0.192006
v 0.192006 0.262403 -0.448015
v 0.272390 0.037684 -0.272390
v 0.222272 0.654044 -0.222272
v 0.272390 0.037403 0.272390
v 0.222272 0.654044 0.222272
v 0.352144 0.263283 -0.352012
v 0.352057 0.261674 0.352012
v 0.454130 0.441031 0.000000
v 0.447157 0.430685 -0.060230
v 0.461102 0.379005 -0.082821
v 0.525083 0.522398 -0.005843
v 0.474695 0.331555 -0.070182
v 0.448570 0.431067 0.065321
v 0.489335 0.319277 0.000000
v 0.461299 0.378769 0.087912
v 0.475013 0.331690 0.075273
v 0.482590 0.468664 -0.001908
v 0.480812 0.457592 -0.051061
v 0.508538 0.421903 -0.068788
v 0.534667 0.391825 -0.057725
v 0.482799 0.461019 0.052132
v 0.550607 0.390657 -0.000108
v 0.510543 0.426431 0.071542
v 0.536251 0.395793 0.061827
v 0.525082 0.513613 -0.039358
v 0.549642 0.495138 -0.051295
v 0.565023 0.526778 -0.008768
v 0.572752 0.481405 -0.043574
v 0.526179 0.517813 0.031348
v 0.583751 0.484502 -0.004211
v 0.551030 0.500787 0.044856
v 0.574301 0.485724 0.038341
v 0.558618 0.512637 0.032769
v 0.579425 0.505871 -0.006744
v 0.556945 0.507353 -0.043828
v 0.541034 0.527026 -0.008175
v 0.447477 0.378045 0.127569
v 0.478506 0.288269 0.000000
v 0.459834 0.306310 -0.113503
v 0.462519 0.312791 0.106902
v 0.428157 0.448818 0.094613
v 0.423888 0.452733 -0.098072
v 0.425200 0.478358 0.000000
v 0.445154 0.378056 -0.131279
v 0.410564 0.469688 0.128702
v 0.408438 0.471566 -0.130155
v 0.455093 0.290163 -0.141855
v 0.454553 0.288989 0.147105
v 0.000000 0.497314 -0.421736
v 0.000000 0.606831 -0.362615
v -0.169093 0.495505 -0.393886
v 0.000000 0.377319 -0.458587
v -0.146640 0.599594 -0.339503
v -0.183435 0.377444 -0.428014
v -0.419762 0.496312 -0.000000
v -0.393067 0.494948 -0.169093
v -0.362022 0.606633 -0.000000
v -0.393367 0.495233 0.169093
v -0.427903 0.377454 -0.183435
v -0.339081 0.599407 -0.146640
v -0.339503 0.599594 0.146640
v -0.427951 0.377402 0.183435
v -0.000000 0.497314 0.421736
v -0.169093 0.495505 0.393886
v -0.000000 0.606831 0.362615
v -0.000000 0.377258 0.458587
v -0.183435 0.376969 0.428014
v -0.146640 0.599594 0.339503
v 0.000000 -0.005548 0.000000
v -0.187578 0.003770 -0.000000
v -0.000000 0.002147 0.187578
v 0.000000 0.002379 -0.187578
v -0.174577 0.009897 -0.174577
v -0.174577 0.009052 0.174577
v 0.000000 0.763978 -0.000000
v -0.146179 0.746402 -0.000000
v 0.000000 0.746402 -0.146179
v -0.000000 0.746402 0.146179
v -0.137496 0.729860 0.137496
v -0.137496 0.729860 -0.137496
v -0.000000 0.098196 0.483516
v -0.193221 0.099490 0.451158
v -0.000000 0.165665 0.492874
v -0.000000 0.051528 0.438301
v -0.174577 0.054701 0.408585
v -0.197150 0.166555 0.460016
v -0.483516 0.103461 -0.000000
v -0.451158 0.103265 -0.193221
v -0.492874 0.172186 -0.000000
v -0.451158 0.103655 0.193221
v -0.438301 0.056452 -0.000000
v -0.408585 0.058737 -0.174577
v -0.460174 0.171366 -0.197150
v -0.460120 0.172474 0.197150
v -0.408585 0.058421 0.174577
v 0.000000 0.100302 -0.483516
v 0.000000 0.171075 -0.492874
v -0.193221 0.101370 -0.451158
v 0.000000 0.052865 -0.438301
v -0.197150 0.171330 -0.460016
v -0.174577 0.055958 -0.408585
v -0.161577 0.027095 -0.320368
v 0.000000 0.021799 -0.344047
v 0.000000 0.693934 -0.273378
v -0.131099 0.680752 -0.256746
v -0.361441 0.172309 -0.361441
v -0.354316 0.103251 -0.354316
v -0.320368 0.059860 -0.320368
v -0.320368 0.028885 0.161577
v -0.344047 0.025244 -0.000000
v -0.320368 0.029655 -0.161577
v -0.256746 0.680752 -0.131099
v -0.273378 0.693934 -0.000000
v -0.256746 0.680752 0.131099
v -0.361441 0.171007 0.361441
v -0.354316 0.102976 0.354316
v -0.320368 0.059444 0.320368
v -0.000000 0.020966 0.344047
v -0.161577 0.026323 0.320368
v -0.131099 0.680752 0.256746
v -0.000000 0.693934 0.273378
v -0.268130 0.592322 -0.268175
v -0.309640 0.493489 -0.309837
v -0.336263 0.377250 -0.336297
v -0.268175 0.592357 0.268175
v -0.309837 0.493696 0.309837
v -0.336264 0.377173 0.336297
v -0.192006 0.259851 0.448015
v -0.000000 0.255828 0.480016
v -0.448419 0.261839 -0.192006
v -0.480016 0.262583 -0.000000
v -0.448346 0.263265 0.192006
v 0.000000 0.262210 -0.480016
v -0.192006 0.261601 -0.448015
v -0.272390 0.037747 -0.272390
v -0.222272 0.654044 -0.222272
v -0.272390 0.037394 0.272390
v -0.222272 0.654044 0.222272
v -0.352129 0.262206 -0.352012
v -0.352049 0.261499 0.352012
v -0.454741 0.441120 -0.000000
v -0.448676 0.431279 -0.060230
v -0.460867 0.379146 -0.082821
v -0.526688 0.521651 -0.005843
v -0.473783 0.332059 -0.070182
v -0.448788 0.431316 0.065321
v -0.488733 0.319666 -0.000000
v -0.461096 0.378880 0.087912
v -0.474407 0.331736 0.075273
v -0.483843 0.468644 -0.001908
v -0.482055 0.457563 -0.051061
v -0.508745 0.421365 -0.068788
v -0.533444 0.390208 -0.057725
v -0.483641 0.460980 0.052132
v -0.550156 0.389398 -0.000108
v -0.510830 0.425864 0.071542
v -0.535978 0.394747 0.061827
v -0.526812 0.512775 -0.039358
v -0.550929 0.493917 -0.051295
v -0.566482 0.525523 -0.008768
v -0.573844 0.479723 -0.043574
v -0.527855 0.517004 0.031348
v -0.584825 0.482709 -0.004211
v -0.552385 0.499565 0.044856
v -0.575381 0.484134 0.038340
v -0.560161 0.511292 0.032769
v -0.580757 0.504249 -0.006745
v -0.558292 0.506104 -0.043829
v -0.542737 0.526013 -0.008175
v -0.447354 0.378166 0.127569
v -0.478491 0.288909 -0.000000
v -0.459449 0.307178 -0.113503
v -0.462086 0.312906 0.106902
v -0.428504 0.449158 0.094613
v -0.424902 0.453345 -0.098072
v -0.426294 0.478885 -0.000000
v -0.444987 0.378333 -0.131279
v -0.410918 0.469998 0.128702
v -0.409222 0.472065 -0.130155
v -0.455071 0.290626 -0.141855
v -0.454422 0.289534 0.147105
v -0.316668 0.472938 0.156406
v -0.317743 0.509608 0.228965
v -0.303757 0.472938 0.116671
v -0.261978 0.472938 0.116671
v -0.249068 0.472938 0.156406
v -0.317743 0.545148 0.250930
v -0.393987 0.545148 0.144858
v -0.316668 0.545148 0.039567
v -0.192638 0.545148 0.080566
v -0.193302 0.545148 0.211195
v -0.351543 0.567113 0.239948
v -0.393987 0.567113 0.109318
v -0.282868 0.567113 0.028585
v -0.171748 0.567113 0.109318
v -0.214192 0.567113 0.239948
v -0.360187 0.661988 0.192510
v -0.351543 0.661988 0.086439
v -0.247993 0.661988 0.061881
v -0.192638 0.661988 0.152775
v -0.261978 0.661987 0.233509
v -0.261978 0.698657 0.174175
v -0.241088 0.678843 0.202928
v -0.205548 0.661988 0.192510
v -0.249068 0.698658 0.134441
v -0.215267 0.678843 0.123458
v -0.214192 0.661988 0.086439
v -0.282868 0.698658 0.109883
v -0.282868 0.678843 0.074344
v -0.317743 0.661988 0.061881
v -0.316668 0.698658 0.134441
v -0.350468 0.678843 0.123458
v -0.373097 0.661988 0.152775
v -0.303757 0.698657 0.174175
v -0.324647 0.678843 0.202928
v -0.303757 0.661987 0.233509
v -0.249067 0.626447 0.251279
v -0.215267 0.607763 0.238468
v -0.192638 0.626448 0.210280
v -0.171748 0.626448 0.145988
v -0.173487 0.607763 0.109883
v -0.193302 0.626448 0.079651
v -0.247993 0.626448 0.039916
v -0.282868 0.607763 0.030414
v -0.317743 0.626448 0.039916
v -0.372433 0.626448 0.079651
v -0.392248 0.607763 0.109883
v -0.393987 0.626448 0.145988
v -0.373098 0.626448 0.210280
v -0.350468 0.607763 0.238468
v -0.316668 0.626447 0.251279
v -0.171748 0.604483 0.181528
v -0.173487 0.563833 0.180963
v -0.171748 0.545148 0.144858
v -0.214192 0.604482 0.050899
v -0.215267 0.563833 0.052379
v -0.249067 0.545148 0.039567
v -0.351543 0.604482 0.050899
v -0.350468 0.563833 0.052379
v -0.373098 0.545148 0.080566
v -0.393987 0.604483 0.181528
v -0.392248 0.563833 0.180963
v -0.372433 0.545148 0.211195
v -0.282868 0.604482 0.262262
v -0.282868 0.563833 0.260433
v -0.247993 0.545148 0.250930
v -0.214192 0.509608 0.204408
v -0.215267 0.492753 0.167388
v -0.192638 0.509608 0.138071
v -0.205548 0.509608 0.098336
v -0.241088 0.492753 0.087919
v -0.261978 0.509608 0.057337
v -0.303757 0.509608 0.057337
v -0.324647 0.492753 0.087919
v -0.360187 0.509608 0.098336
v -0.247993 0.509608 0.228965
v -0.282868 0.492753 0.216503
v -0.282868 0.472938 0.180963
v -0.373097 0.509608 0.138071
v -0.350468 0.492753 0.167388
v -0.351543 0.509608 0.204408
v -0.312207 0.471378 0.135890
v -0.334911 0.507034 0.217056
v -0.385210 0.526101 0.143020
v -0.316779 0.526101 0.242014
v -0.230824 0.507034 0.217056
v -0.282868 0.471378 0.114573
v -0.312207 0.526101 0.047347
v -0.253528 0.471378 0.135890
v -0.198658 0.526101 0.087212
v -0.201484 0.526101 0.207523
v -0.334911 0.556951 0.247906
v -0.264735 0.614645 0.258925
v -0.396417 0.556951 0.127595
v -0.385210 0.614645 0.197742
v -0.301000 0.556951 0.031922
v -0.364252 0.614645 0.064257
v -0.180525 0.556951 0.093104
v -0.230824 0.614645 0.042940
v -0.201484 0.556951 0.226589
v -0.169318 0.614645 0.163251
v -0.367077 0.645495 0.203634
v -0.364251 0.645495 0.083323
v -0.248957 0.645495 0.048832
v -0.180525 0.645495 0.147826
v -0.253528 0.645495 0.243499
v -0.367077 0.664561 0.172784
v -0.282868 0.700217 0.176273
v -0.334911 0.664561 0.073790
v -0.230824 0.664561 0.073790
v -0.198658 0.664561 0.172784
v -0.367077 0.507034 0.118062
v -0.301000 0.471378 0.170381
v -0.364251 0.526101 0.207523
v -0.248957 0.526101 0.242014
v -0.264735 0.471378 0.170381
v -0.282868 0.507035 0.056880
v -0.367077 0.526101 0.087212
v -0.198658 0.507034 0.118062
v -0.253528 0.526101 0.047347
v -0.180525 0.526101 0.143020
v -0.301000 0.614645 0.258925
v -0.230824 0.556951 0.247906
v -0.396417 0.614645 0.163251
v -0.364252 0.556951 0.226589
v -0.334911 0.614645 0.042940
v -0.385210 0.556951 0.093104
v -0.201484 0.614645 0.064257
v -0.264735 0.556951 0.031922
v -0.180525 0.614645 0.197742
v -0.169318 0.556951 0.127595
v -0.312207 0.645495 0.243499
v -0.385210 0.645495 0.147826
v -0.316779 0.645495 0.048832
v -0.201484 0.645495 0.083323
v -0.198658 0.645495 0.203634
v -0.312207 0.700217 0.154956
v -0.282868 0.664561 0.233966
v -0.301000 0.700217 0.120465
v -0.264735 0.700217 0.120465
v -0.253528 0.700217 0.154956
v -0.251533 0.690584 0.188551
v -0.251533 0.671235 0.219859
v -0.221758 0.671235 0.198226
v -0.232167 0.690584 0.128949
v -0.202393 0.671236 0.138624
v -0.213766 0.671236 0.103621
v -0.282868 0.690584 0.092114
v -0.264466 0.671235 0.066786
v -0.301269 0.671235 0.066786
v -0.333568 0.690584 0.128949
v -0.351969 0.671236 0.103621
v -0.363342 0.671236 0.138624
v -0.314202 0.690584 0.188551
v -0.343977 0.671235 0.198226
v -0.314202 0.671235 0.219859
v -0.232167 0.617925 0.246514
v -0.213765 0.586618 0.240535
v -0.202392 0.617925 0.224881
v -0.171058 0.617925 0.128442
v -0.171057 0.586618 0.109094
v -0.182431 0.617925 0.093440
v -0.264466 0.617925 0.033838
v -0.282868 0.586618 0.027859
v -0.301269 0.617925 0.033838
v -0.383304 0.617925 0.093440
v -0.394678 0.586618 0.109094
v -0.394677 0.617925 0.128442
v -0.363343 0.617925 0.224881
v -0.351970 0.586618 0.240535
v -0.333568 0.617925 0.246514
v -0.171057 0.584978 0.181752
v -0.182431 0.553670 0.197406
v -0.171058 0.553670 0.162404
v -0.213765 0.584978 0.050312
v -0.202392 0.553670 0.065965
v -0.232167 0.553670 0.044333
v -0.351970 0.584978 0.050312
v -0.333568 0.553670 0.044333
v -0.363343 0.553670 0.065965
v -0.394678 0.584978 0.181752
v -0.394677 0.553670 0.162404
v -0.383304 0.553670 0.197406
v -0.282868 0.584978 0.262987
v -0.301269 0.553670 0.257008
v -0.264466 0.553670 0.257008
v -0.213766 0.500360 0.187225
v -0.232167 0.481012 0.161897
v -0.202393 0.500360 0.152223
v -0.221758 0.500360 0.092621
v -0.251533 0.481012 0.102295
v -0.251533 0.500360 0.070988
v -0.314202 0.500360 0.070988
v -0.314202 0.481012 0.102295
v -0.343977 0.500360 0.092621
v -0.264466 0.500360 0.224061
v -0.301269 0.500360 0.224061
v -0.282868 0.481012 0.198733
v -0.363342 0.500360 0.152223
v -0.333568 0.481012 0.161897
v -0.351969 0.500360 0.187225
v -0.282868 0.466699 0.145423
v -0.345481 0.532534 0.231604
v -0.384179 0.532534 0.112505
v -0.282868 0.532535 0.038898
v -0.181556 0.532534 0.112505
v -0.220254 0.532534 0.231604
v -0.384179 0.639061 0.178341
v -0.345481 0.639061 0.059242
v -0.220254 0.639061 0.059242
v -0.181556 0.639061 0.178341
v -0.282868 0.639061 0.251949
v -0.282868 0.704897 0.145423
v -0.342453 0.484423 0.126063
v -0.319693 0.484423 0.196110
v -0.379280 0.523144 0.176750
v -0.282868 0.523144 0.246797
v -0.246042 0.484423 0.196110
v -0.282868 0.484423 0.082771
v -0.342454 0.523144 0.063410
v -0.223282 0.484423 0.126063
v -0.223282 0.523144 0.063410
v -0.186455 0.523144 0.176750
v -0.319694 0.585798 0.258763
v -0.246042 0.585798 0.258763
v -0.402040 0.585798 0.145423
v -0.379280 0.585798 0.215471
v -0.319694 0.585798 0.032083
v -0.379280 0.585798 0.075375
v -0.186455 0.585798 0.075375
v -0.246042 0.585798 0.032083
v -0.186455 0.585798 0.215471
v -0.163695 0.585798 0.145423
v -0.342454 0.648451 0.227437
v -0.379280 0.648451 0.114096
v -0.282868 0.648451 0.044049
v -0.186455 0.648451 0.114096
v -0.223282 0.648451 0.227437
v -0.342453 0.687173 0.164784
v -0.282868 0.687172 0.208076
v -0.319693 0.687173 0.094736
v -0.246042 0.687173 0.094736
v -0.223282 0.687173 0.164784
v 0.316668 0.472938 0.156406
v 0.317743 0.509608 0.228965
v 0.303757 0.472938 0.116671
v 0.261978 0.472938 0.116671
v 0.249068 0.472938 0.156406
v 0.317743 0.545148 0.250930
v 0.393987 0.545148 0.144858
v 0.316668 0.545148 0.039567
v 0.192638 0.545148 0.080566
v 0.193302 0.545148 0.211195
v 0.351543 0.567113 0.239948
v 0.393987 0.567113 0.109318
v 0.282868 0.567113 0.028585
v 0.171748 0.567113 0.109318
v 0.214192 0.567113 0.239948
v 0.360187 0.661988 0.192510
v 0.351543 0.661988 0.086439
v 0.247993 0.661988 0.061882
v 0.192638 0.661988 0.152775
v 0.261978 0.661987 0.233509
v 0.261978 0.698657 0.174175
v 0.241088 0.678843 0.202928
v 0.205548 0.661988 0.192510
v 0.249068 0.698658 0.134441
v 0.215267 0.678843 0.123458
v 0.214192 0.661988 0.086439
v 0.282868 0.698658 0.109884
v 0.282868 0.678843 0.074344
v 0.317743 0.661988 0.061882
v 0.316668 0.698658 0.134441
v 0.350468 0.678843 0.123458
v 0.373097 0.661988 0.152775
v 0.303757 0.698657 0.174175
v 0.324647 0.678843 0.202928
v 0.303757 0.661987 0.233509
v 0.249067 0.626447 0.251279
v 0.215267 0.607763 0.238468
v 0.192638 0.626448 0.210280
v 0.171748 0.626448 0.145988
v 0.173487 0.607763 0.109883
v 0.193302 0.626448 0.079651
v 0.247993 0.626448 0.039916
v 0.282868 0.607763 0.030414
v 0.317743 0.626447 0.039916
v 0.372433 0.626448 0.079651
v 0.392248 0.607763 0.109883
v 0.393987 0.626448 0.145988
v 0.373098 0.626448 0.210280
v 0.350468 0.607763 0.238468
v 0.316668 0.626447 0.251279
v 0.171748 0.604482 0.181528
v 0.173487 0.563833 0.180963
v 0.171748 0.545148 0.144858
v 0.214192 0.604482 0.050899
v 0.215267 0.563833 0.052379
v 0.249067 0.545148 0.039567
v 0.351543 0.604482 0.050899
v 0.350468 0.563833 0.052379
v 0.373098 0.545148 0.080566
v 0.393987 0.604482 0.181528
v 0.392248 0.563833 0.180963
v 0.372433 0.545148 0.211195
v 0.282868 0.604482 0.262262
v 0.282868 0.563833 0.260433
v 0.247993 0.545148 0.250930
v 0.214192 0.509608 0.204408
v 0.215267 0.492753 0.167388
v 0.192638 0.509608 0.138071
v 0.205548 0.509608 0.098336
v 0.241088 0.492753 0.087919
v 0.261978 0.509608 0.057337
v 0.303757 0.509608 0.057337
v 0.324647 0.492753 0.087919
v 0.360187 0.509608 0.098336
v 0.247993 0.509608 0.228965
v 0.282868 0.492753 0.216503
v 0.282868 0.472938 0.180963
v 0.373097 0.509608 0.138071
v 0.350468 0.492753 0.167388
v 0.351543 0.509608 0.204408
v 0.312207 0.471378 0.135890
v 0.334911 0.507034 0.217056
v 0.385210 0.526100 0.143020
v 0.316779 0.526101 0.242014
v 0.230824 0.507034 0.217056
v 0.282868 0.471378 0.114574
v 0.312207 0.526101 0.047347
v 0.253528 0.471378 0.135890
v 0.198658 0.526101 0.087212
v 0.201484 0.526100 0.207523
v 0.334912 0.556951 0.247906
v 0.264735 0.614645 0.258925
v 0.396417 0.556951 0.127595
v 0.385210 0.614645 0.197742
v 0.301000 0.556951 0.031922
v 0.364252 0.614645 0.064257
v 0.180525 0.556951 0.093104
v 0.230824 0.614645 0.042940
v 0.201484 0.556951 0.226589
v 0.169318 0.614645 0.163251
v 0.367077 0.645495 0.203634
v 0.364251 0.645495 0.083323
v 0.248957 0.645495 0.048832
v 0.180525 0.645495 0.147826
v 0.253528 0.645495 0.243500
v 0.367077 0.664561 0.172784
v 0.282868 0.700217 0.176273
v 0.334911 0.664561 0.073790
v 0.230824 0.664561 0.073790
v 0.198658 0.664561 0.172784
v 0.367077 0.507034 0.118062
v 0.301000 0.471378 0.170381
v 0.364251 0.526100 0.207523
v 0.248957 0.526101 0.242014
v 0.264735 0.471378 0.170381
v 0.282868 0.507035 0.056880
v 0.367077 0.526101 0.087212
v 0.198658 0.507034 0.118062
v 0.253528 0.526101 0.047347
v 0.180525 0.526100 0.143020
v 0.301000 0.614645 0.258925
v 0.230824 0.556951 0.247906
v 0.396417 0.614645 0.163251
v 0.364252 0.556951 0.226589
v 0.334912 0.614645 0.042940
v 0.385210 0.556951 0.093104
v 0.201484 0.614645 0.064257
v 0.264735 0.556951 0.031922
v 0.180525 0.614645 0.197742
v 0.169318 0.556951 0.127595
v 0.312207 0.645495 0.243500
v 0.385210 0.645495 0.147826
v 0.316779 0.645495 0.048832
v 0.201484 0.645495 0.083323
v 0.198658 0.645495 0.203634
v 0.312207 0.700217 0.154956
v 0.282868 0.664561 0.233966
v 0.301000 0.700217 0.120465
v 0.264735 0.700217 0.120465
v 0.253528 0.700217 0.154956
v 0.251533 0.690584 0.188551
v 0.251533 0.671235 0.219859
v 0.221758 0.671235 0.198226
v 0.232168 0.690584 0.128949
v 0.202393 0.671235 0.138624
v 0.213766 0.671235 0.103621
v 0.282868 0.690584 0.092114
v 0.264466 0.671235 0.066786
v 0.301269 0.671235 0.066786
v 0.333568 0.690584 0.128949
v 0.351969 0.671235 0.103621
v 0.363342 0.671235 0.138624
v 0.314202 0.690584 0.188551
v 0.343977 0.671235 0.198226
v 0.314202 0.671235 0.219859
v 0.232167 0.617925 0.246514
v 0.213765 0.586618 0.240535
v 0.202392 0.617925 0.224881
v 0.171058 0.617925 0.128442
v 0.171057 0.586618 0.109094
v 0.182431 0.617925 0.093440
v 0.264466 0.617925 0.033838
v 0.282868 0.586618 0.027859
v 0.301269 0.617925 0.033838
v 0.383304 0.617925 0.093440
v 0.394678 0.586618 0.109094
v 0.394677 0.617925 0.128442
v 0.363343 0.617925 0.224881
v 0.351970 0.586618 0.240535
v 0.333568 0.617925 0.246514
v 0.171057 0.584978 0.181753
v 0.182431 0.553670 0.197406
v 0.171058 0.553670 0.162404
v 0.213765 0.584978 0.050312
v 0.202392 0.553670 0.065965
v 0.232167 0.553670 0.044333
v 0.351970 0.584978 0.050312
v 0.333568 0.553670 0.044333
v 0.363343 0.553670 0.065965
v 0.394678 0.584978 0.181753
v 0.394677 0.553670 0.162404
v 0.383304 0.553670 0.197406
v 0.282868 0.584978 0.262987
v 0.301269 0.553670 0.257008
v 0.264466 0.553670 0.257008
v 0.213766 0.500360 0.187225
v 0.232168 0.481011 0.161897
v 0.202393 0.500360 0.152223
v 0.221758 0.500360 0.092621
v 0.251533 0.481012 0.102295
v 0.251533 0.500360 0.070988
v 0.314202 0.500360 0.070988
v 0.314202 0.481012 0.102295
v 0.343977 0.500360 0.092621
v 0.264466 0.500360 0.224061
v 0.301269 0.500360 0.224061
v 0.282868 0.481012 0.198733
v 0.363342 0.500360 0.152223
v 0.333568 0.481011 0.161897
v 0.351969 0.500360 0.187225
v 0.282868 0.466698 0.145423
v 0.345481 0.532534 0.231604
v 0.384179 0.532534 0.112505
v 0.282868 0.532535 0.038898
v 0.181556 0.532534 0.112505
v 0.220254 0.532534 0.231604
v 0.384179 0.639061 0.178341
v 0.345481 0.639061 0.059242
v 0.220254 0.639061 0.059242
v 0.181556 0.639061 0.178341
v 0.282868 0.639061 0.251949
v 0.282868 0.704897 0.145423
v 0.342453 0.484423 0.126063
v 0.319693 0.484423 0.196110
v 0.379280 0.523144 0.176750
v 0.282868 0.523144 0.246797
v 0.246042 0.484423 0.196110
v 0.282868 0.484423 0.082771
v 0.342454 0.523144 0.063410
v 0.223282 0.484423 0.126063
v 0.223282 0.523144 0.063410
v 0.186455 0.523144 0.176750
v 0.319694 0.585798 0.258763
v 0.246042 0.585798 0.258763
v 0.402040 0.585798 0.145423
v 0.379280 0.585798 0.215471
v 0.319694 0.585798 0.032083
v 0.379280 0.585798 0.075375
v 0.186455 0.585798 0.075375
v 0.246042 0.585798 0.032083
v 0.186455 0.585798 0.215471
v 0.163695 0.585798 0.145423
v 0.342454 0.648451 0.227437
v 0.379280 0.648451 0.114096
v 0.282868 0.648451 0.044049
v 0.186455 0.648451 0.114096
v 0.223282 0.648451 0.227437
v 0.342453 0.687173 0.164784
v 0.282868 0.687172 0.208076
v 0.319693 0.687173 0.094736
v 0.246042 0.687173 0.094736
v 0.223282 0.687173 0.164784
vn 0.1534 0.4762 -0.8658
vn 0.4569 0.4943 -0.7395
vn 0.1504 0.7135 -0.6844
vn 0.4048 0.7013 -0.5869
vn 0.1579 0.2908 -0.9437
vn 0.1616 0.1807 -0.9702
vn 0.4924 0.2977 -0.8179
vn 0.5051 0.1855 -0.8429
vn 0.9123 0.3834 -0.1436
vn 0.8185 0.3027 -0.4884
vn 0.9317 0.3045 -0.1983
vn 0.8423 0.1875 -0.5053
vn 0.8730 0.4649 -0.1477
vn 0.6889 0.7091 -0.1503
vn 0.7442 0.4915 -0.4523
vn 0.5902 0.6994 -0.4031
vn 0.8735 0.4655 0.1425
vn 0.7420 0.4927 0.4546
vn 0.6874 0.7111 0.1475
vn 0.5866 0.7020 0.4038
vn 0.9546 0.1875 -0.2315
vn 0.9857 0.0445 0.1626
vn 0.8188 0.2988 0.4902
vn 0.8422 0.1853 0.5064
vn 0.1576 0.2909 0.9437
vn 0.4919 0.2972 0.8183
vn 0.1606 0.1731 0.9717
vn 0.5047 0.1808 0.8442
vn 0.1534 0.4762 0.8658
vn 0.1504 0.7135 0.6844
vn 0.4555 0.4947 0.7401
vn 0.4038 0.7020 0.5866
vn 0.0445 -0.9982 -0.0403
vn 0.1358 -0.9897 -0.0456
vn 0.0495 -0.9910 -0.1242
vn 0.1476 -0.9795 -0.1368
vn 0.0445 -0.9982 0.0390
vn 0.0493 -0.9915 0.1205
vn 0.1362 -0.9897 0.0447
vn 0.1494 -0.9796 0.1345
vn 0.1222 0.9850 0.1222
vn 0.3805 0.9146 0.1371
vn 0.1371 0.9146 0.3805
vn 0.3779 0.8452 0.3779
vn 0.1222 0.9850 -0.1222
vn 0.1371 0.9146 -0.3805
vn 0.3807 0.9144 -0.1373
vn 0.3782 0.8452 -0.3777
vn 0.1271 -0.7002 0.7025
vn 0.3684 -0.7261 0.5805
vn 0.0721 -0.9506 0.3019
vn 0.1970 -0.9449 0.2615
vn 0.1640 -0.1370 0.9769
vn 0.1616 0.1380 0.9772
vn 0.5117 -0.1426 0.8473
vn 0.5073 0.1395 0.8504
vn 0.7055 -0.6978 -0.1239
vn 0.5889 -0.7238 -0.3596
vn 0.3096 -0.9484 -0.0678
vn 0.2735 -0.9440 -0.1843
vn 0.9776 -0.1334 -0.1628
vn 0.9770 0.1392 -0.1615
vn 0.8486 -0.1381 -0.5107
vn 0.8488 0.1417 -0.5094
vn 0.9777 -0.1327 0.1630
vn 0.8492 -0.1406 0.5090
vn 0.9770 0.1392 0.1618
vn 0.8479 0.1402 0.5113
vn 0.7055 -0.6979 0.1235
vn 0.3097 -0.9485 0.0672
vn 0.5889 -0.7249 0.3575
vn 0.2735 -0.9444 0.1825
vn 0.1646 -0.1304 -0.9777
vn 0.5107 -0.1357 -0.8490
vn 0.1621 0.1391 -0.9769
vn 0.5084 0.1430 -0.8492
vn 0.1294 -0.6920 -0.7102
vn 0.0727 -0.9489 -0.3070
vn 0.3667 -0.7197 -0.5896
vn 0.1947 -0.9438 -0.2671
vn -0.0605 0.4114 0.9094
vn 0.7250 -0.6451 -0.2413
vn -0.0724 0.3893 -0.9183
vn 0.3383 -0.1123 -0.9343
vn 0.9852 0.0557 -0.1622
vn 0.9520 0.1868 0.2426
vn 0.9087 0.3942 0.1377
vn 0.9315 0.2987 0.2078
vn 0.3609 0.0057 -0.9326
vn 0.3904 0.0931 0.9159
vn -0.7730 0.6204 -0.1324
vn 0.9188 -0.3216 0.2289
vn -0.6638 0.7436 0.0799
vn 0.7326 -0.6389 0.2348
vn -0.6505 0.7535 -0.0955
vn 0.3460 -0.0930 0.9336
vn -0.3028 0.9219 -0.2417
vn 0.7629 0.4703 -0.4437
vn -0.2594 0.9575 0.1257
vn 0.7790 0.5406 0.3177
vn -0.1833 0.3302 -0.9259
vn 0.9081 -0.3392 -0.2455
vn -0.1489 0.4194 0.8955
vn -0.7757 0.6239 0.0947
vn 0.4417 0.2607 -0.8585
vn 0.9476 0.1589 -0.2773
vn 0.0870 0.9510 0.2968
vn 0.0779 0.6870 0.7225
vn 0.9541 0.2175 0.2056
vn 0.4961 0.4436 0.7464
vn 0.0613 0.8852 -0.4611
vn -0.0154 0.5282 -0.8490
vn 0.9192 0.1245 0.3736
vn 0.9299 -0.2982 0.2152
vn 0.7764 0.6088 0.1630
vn 0.7920 0.5851 -0.1744
vn 0.8635 0.3764 0.3358
vn 0.9403 -0.2645 -0.2142
vn 0.8741 0.3782 -0.3048
vn 0.9279 0.1311 -0.3489
vn 0.8879 0.4412 0.1307
vn 0.8897 0.3548 0.2873
vn 0.9416 0.1418 0.3055
vn 0.9870 0.0018 0.1607
vn 0.8969 0.4202 -0.1374
vn 0.9862 0.0337 -0.1623
vn 0.8948 0.3546 -0.2711
vn 0.9469 0.1418 -0.2886
vn -0.1534 0.4762 -0.8658
vn -0.4563 0.4941 -0.7400
vn -0.1504 0.7135 -0.6844
vn -0.4040 0.7019 -0.5866
vn -0.1578 0.2909 -0.9437
vn -0.1619 0.1801 -0.9702
vn -0.4923 0.2976 -0.8180
vn -0.5054 0.1839 -0.8430
vn -0.9083 0.3919 -0.1466
vn -0.8184 0.3007 -0.4897
vn -0.9303 0.3013 -0.2089
vn -0.8423 0.1861 -0.5058
vn -0.8707 0.4686 -0.1496
vn -0.6873 0.7107 -0.1502
vn -0.7431 0.4921 -0.4534
vn -0.5887 0.7006 -0.4031
vn -0.8713 0.4683 0.1470
vn -0.7420 0.4927 0.4546
vn -0.6863 0.7120 0.1486
vn -0.5866 0.7020 0.4038
vn -0.9542 0.1867 -0.2337
vn -0.9855 0.0496 0.1624
vn -0.8188 0.2985 0.4904
vn -0.8417 0.1861 0.5069
vn -0.1581 0.2903 0.9438
vn -0.4918 0.2963 0.8187
vn -0.1602 0.1745 0.9715
vn -0.5051 0.1823 0.8436
vn -0.1534 0.4762 0.8658
vn -0.1504 0.7135 0.6844
vn -0.4555 0.4947 0.7401
vn -0.4038 0.7020 0.5866
vn -0.0479 -0.9980 -0.0404
vn -0.1370 -0.9895 -0.0460
vn -0.0511 -0.9912 -0.1223
vn -0.1475 -0.9803 -0.1317
vn -0.0461 -0.9982 0.0374
vn -0.0493 -0.9915 0.1205
vn -0.1370 -0.9897 0.0412
vn -0.1498 -0.9796 0.1340
vn -0.1222 0.9850 0.1222
vn -0.3805 0.9146 0.1371
vn -0.1371 0.9146 0.3805
vn -0.3779 0.8452 0.3779
vn -0.1222 0.9850 -0.1222
vn -0.1371 0.9146 -0.3805
vn -0.3805 0.9146 -0.1371
vn -0.3779 0.8452 -0.3779
vn -0.1271 -0.7002 0.7025
vn -0.3702 -0.7243 0.5816
vn -0.0721 -0.9506 0.3019
vn -0.1971 -0.9448 0.2616
vn -0.1640 -0.1371 0.9769
vn -0.1612 0.1370 0.9774
vn -0.5122 -0.1421 0.8470
vn -0.5075 0.1393 0.8503
vn -0.7037 -0.6998 -0.1227
vn -0.5881 -0.7256 -0.3573
vn -0.3086 -0.9488 -0.0679
vn -0.2746 -0.9446 -0.1797
vn -0.9773 -0.1359 -0.1625
vn -0.9772 0.1376 -0.1620
vn -0.8484 -0.1410 -0.5103
vn -0.8487 0.1403 -0.5098
vn -0.9773 -0.1348 0.1632
vn -0.8490 -0.1409 0.5092
vn -0.9773 0.1374 0.1614
vn -0.8480 0.1401 0.5112
vn -0.7063 -0.6971 0.1233
vn -0.3110 -0.9482 0.0652
vn -0.5919 -0.7222 0.3578
vn -0.2762 -0.9438 0.1816
vn -0.1638 -0.1311 -0.9777
vn -0.5108 -0.1382 -0.8485
vn -0.1629 0.1385 -0.9769
vn -0.5087 0.1418 -0.8492
vn -0.1273 -0.6948 -0.7078
vn -0.0724 -0.9491 -0.3066
vn -0.3670 -0.7224 -0.5861
vn -0.1948 -0.9441 -0.2661
vn 0.0550 0.4116 0.9097
vn -0.7157 -0.6540 -0.2449
vn 0.0665 0.3899 -0.9184
vn -0.3406 -0.1188 -0.9327
vn -0.9852 0.0552 -0.1623
vn -0.9526 0.1882 0.2390
vn -0.9054 0.3994 0.1439
vn -0.9292 0.2991 0.2169
vn -0.3640 -0.0036 -0.9314
vn -0.3926 0.0868 0.9156
vn 0.7652 0.6292 -0.1365
vn -0.9138 -0.3360 0.2284
vn 0.6545 0.7522 0.0763
vn -0.7251 -0.6481 0.2329
vn 0.6427 0.7597 -0.0992
vn -0.3456 -0.0967 0.9334
vn 0.2874 0.9256 -0.2462
vn -0.7693 0.4603 -0.4430
vn 0.2428 0.9616 0.1278
vn -0.7874 0.5291 0.3162
vn 0.1791 0.3334 -0.9256
vn -0.9006 -0.3561 -0.2492
vn 0.1418 0.4215 0.8957
vn 0.7675 0.6341 0.0937
vn -0.4470 0.2552 -0.8574
vn -0.9498 0.1469 -0.2761
vn -0.1006 0.9491 0.2984
vn -0.0894 0.6855 0.7226
vn -0.9570 0.2049 0.2055
vn -0.5036 0.4353 0.7463
vn -0.0722 0.8839 -0.4621
vn 0.0092 0.5264 -0.8502
vn -0.9213 0.1203 0.3698
vn -0.9333 -0.2879 0.2144
vn -0.7834 0.5989 0.1664
vn -0.7929 0.5856 -0.1682
vn -0.8664 0.3698 0.3357
vn -0.9441 -0.2487 -0.2162
vn -0.8780 0.3609 -0.3145
vn -0.9309 0.1275 -0.3422
vn -0.8884 0.4384 0.1364
vn -0.8912 0.3501 0.2884
vn -0.9430 0.1416 0.3013
vn -0.9868 0.0087 0.1614
vn -0.8941 0.4256 -0.1396
vn -0.9859 0.0417 -0.1623
vn -0.8970 0.3456 -0.2757
vn -0.9481 0.1432 -0.2838
vn -0.1645 -0.9849 0.0534
vn -0.3321 -0.9126 0.2387
vn -0.4090 -0.9126 0.0021
vn -0.3988 -0.5656 0.7218
vn -0.2738 -0.7554 0.5953
vn -0.1495 -0.6247 0.7665
vn -0.1016 -0.9849 -0.1399
vn -0.3296 -0.9126 -0.2421
vn -0.1284 -0.9126 -0.3883
vn 0.1016 -0.9849 -0.1399
vn 0.1284 -0.9126 -0.3883
vn 0.3296 -0.9126 -0.2421
vn 0.1645 -0.9849 0.0534
vn 0.4090 -0.9126 0.0021
vn 0.3321 -0.9126 0.2387
vn -0.3988 -0.3927 0.8287
vn -0.1495 -0.4062 0.9015
vn -0.2738 -0.1946 0.9419
vn -0.9114 -0.3927 -0.1232
vn -0.9035 -0.4062 0.1364
vn -0.9804 -0.1946 0.0307
vn -0.1645 -0.3927 -0.9048
vn -0.4090 -0.4062 -0.8172
vn -0.3321 -0.1946 -0.9229
vn 0.8097 -0.3927 -0.4360
vn 0.6508 -0.4062 -0.6415
vn 0.7751 -0.1947 -0.6011
vn 0.6649 -0.3927 0.6354
vn 0.8112 -0.4062 0.4207
vn 0.8112 -0.1946 0.5515
vn -0.5633 -0.2858 0.7753
vn -0.4816 -0.0596 0.8744
vn -0.6828 -0.0596 0.7282
vn -0.9114 -0.2858 -0.2961
vn -0.9804 -0.0596 -0.1878
vn -0.9035 -0.0596 -0.4243
vn -0.0000 -0.2858 -0.9583
vn -0.1243 -0.0596 -0.9904
vn 0.1243 -0.0596 -0.9904
vn 0.9114 -0.2858 -0.2961
vn 0.9035 -0.0596 -0.4243
vn 0.9804 -0.0596 -0.1878
vn 0.5633 -0.2858 0.7753
vn 0.6828 -0.0596 0.7282
vn 0.4816 -0.0596 0.8744
vn -0.7469 0.5656 0.3496
vn -0.5714 0.6247 0.5322
vn -0.5714 0.7554 0.3207
vn -0.5633 0.5656 -0.6023
vn -0.6828 0.6247 -0.3790
vn -0.4816 0.7554 -0.4444
vn 0.3988 0.5656 -0.7218
vn 0.1495 0.6247 -0.7665
vn 0.2738 0.7554 -0.5953
vn 0.8097 0.5656 0.1562
vn 0.7751 0.6247 -0.0947
vn 0.6508 0.7554 0.0764
vn 0.1016 0.5656 0.8184
vn 0.3296 0.6246 0.7079
vn 0.1284 0.7554 0.6426
vn 0.1284 0.9126 0.3883
vn 0.3296 0.9126 0.2421
vn 0.1016 0.9849 0.1399
vn 0.2282 0.8282 0.5119
vn 0.4163 0.7060 0.5730
vn 0.4163 0.8282 0.3752
vn 0.5714 0.6247 0.5322
vn 0.7469 0.5656 0.3496
vn 0.5714 0.7554 0.3207
vn 0.4090 0.9126 -0.0021
vn 0.3321 0.9126 -0.2387
vn 0.1645 0.9849 -0.0534
vn 0.5573 0.8282 -0.0589
vn 0.6736 0.7060 -0.2189
vn 0.4855 0.8282 -0.2800
vn 0.6828 0.6247 -0.3790
vn 0.5633 0.5656 -0.6023
vn 0.4816 0.7554 -0.4444
vn 0.1243 0.9126 -0.3896
vn -0.1243 0.9126 -0.3896
vn -0.0000 0.9849 -0.1729
vn 0.1163 0.8282 -0.5482
vn -0.0000 0.7060 -0.7082
vn -0.1163 0.8282 -0.5482
vn -0.1495 0.6247 -0.7665
vn -0.3988 0.5656 -0.7218
vn -0.2738 0.7554 -0.5953
vn -0.3321 0.9126 -0.2387
vn -0.4090 0.9126 -0.0021
vn -0.1645 0.9849 -0.0534
vn -0.4855 0.8282 -0.2800
vn -0.6736 0.7060 -0.2189
vn -0.5573 0.8282 -0.0589
vn -0.7751 0.6247 -0.0947
vn -0.8097 0.5656 0.1562
vn -0.6508 0.7554 0.0764
vn -0.3296 0.9126 0.2421
vn -0.1284 0.9126 0.3883
vn -0.1016 0.9849 0.1399
vn -0.4163 0.8282 0.3752
vn -0.4163 0.7060 0.5730
vn -0.2282 0.8282 0.5119
vn -0.3296 0.6246 0.7079
vn -0.1016 0.5656 0.8184
vn -0.1284 0.7554 0.6426
vn 0.3321 0.1946 0.9229
vn 0.4090 0.4062 0.8172
vn 0.1645 0.3927 0.9048
vn 0.4855 0.1200 0.8660
vn 0.6736 0.1200 0.7293
vn 0.5573 0.3177 0.7671
vn 0.7751 0.1946 0.6011
vn 0.8097 0.3927 0.4360
vn 0.6508 0.4062 0.6415
vn 0.9804 0.1946 -0.0307
vn 0.9035 0.4062 -0.1364
vn 0.9114 0.3927 0.1232
vn 0.9736 0.1200 -0.1941
vn 0.9018 0.1200 -0.4152
vn 0.9018 0.3177 -0.2930
vn 0.8112 0.1946 -0.5515
vn 0.6649 0.3927 -0.6354
vn 0.8112 0.4062 -0.4207
vn 0.2738 0.1946 -0.9419
vn 0.1495 0.4062 -0.9015
vn 0.3988 0.3927 -0.8287
vn 0.1163 0.1200 -0.9859
vn -0.1163 0.1200 -0.9859
vn -0.0000 0.3177 -0.9482
vn -0.2738 0.1946 -0.9419
vn -0.3988 0.3927 -0.8287
vn -0.1495 0.4062 -0.9015
vn -0.8112 0.1946 -0.5515
vn -0.8112 0.4062 -0.4207
vn -0.6649 0.3927 -0.6354
vn -0.9018 0.1200 -0.4152
vn -0.9736 0.1200 -0.1941
vn -0.9018 0.3177 -0.2930
vn -0.9804 0.1946 -0.0307
vn -0.9114 0.3927 0.1232
vn -0.9035 0.4062 -0.1364
vn -0.7751 0.1946 0.6011
vn -0.6508 0.4062 0.6415
vn -0.8097 0.3927 0.4360
vn -0.6736 0.1200 0.7293
vn -0.4855 0.1200 0.8660
vn -0.5573 0.3177 0.7671
vn -0.3321 0.1946 0.9229
vn -0.1645 0.3927 0.9049
vn -0.4090 0.4062 0.8172
vn 0.9035 0.0596 0.4243
vn 0.9804 0.0596 0.1878
vn 0.9114 0.2858 0.2961
vn 0.9018 -0.1200 0.4152
vn 0.9018 -0.3177 0.2930
vn 0.9736 -0.1200 0.1941
vn 0.9035 -0.4062 0.1364
vn 0.9114 -0.3927 -0.1232
vn 0.9804 -0.1946 0.0307
vn 0.6828 0.0596 -0.7282
vn 0.4816 0.0596 -0.8744
vn 0.5633 0.2858 -0.7753
vn 0.6736 -0.1200 -0.7293
vn 0.5573 -0.3177 -0.7671
vn 0.4855 -0.1200 -0.8660
vn 0.4090 -0.4062 -0.8172
vn 0.1645 -0.3927 -0.9048
vn 0.3321 -0.1946 -0.9229
vn -0.4816 0.0596 -0.8744
vn -0.6828 0.0596 -0.7282
vn -0.5633 0.2858 -0.7753
vn -0.4855 -0.1200 -0.8660
vn -0.5573 -0.3177 -0.7671
vn -0.6736 -0.1200 -0.7293
vn -0.6508 -0.4062 -0.6415
vn -0.8097 -0.3927 -0.4360
vn -0.7751 -0.1946 -0.6011
vn -0.9804 0.0596 0.1878
vn -0.9035 0.0596 0.4243
vn -0.9114 0.2858 0.2961
vn -0.9736 -0.1200 0.1941
vn -0.9018 -0.3177 0.2930
vn -0.9018 -0.1200 0.4152
vn -0.8112 -0.4062 0.4207
vn -0.6649 -0.3927 0.6354
vn -0.8112 -0.1946 0.5515
vn -0.1243 0.0596 0.9904
vn 0.1243 0.0596 0.9904
vn -0.0000 0.2858 0.9583
vn -0.1163 -0.1200 0.9859
vn -0.0000 -0.3177 0.9482
vn 0.1163 -0.1200 0.9859
vn 0.1495 -0.4062 0.9015
vn 0.3988 -0.3927 0.8287
vn 0.2738 -0.1946 0.9419
vn 0.4816 -0.7554 0.4444
vn 0.6828 -0.6247 0.3790
vn 0.5633 -0.5656 0.6023
vn 0.4855 -0.8282 0.2800
vn 0.5573 -0.8282 0.0589
vn 0.6736 -0.7060 0.2189
vn 0.6508 -0.7554 -0.0764
vn 0.8097 -0.5656 -0.1562
vn 0.7751 -0.6247 0.0947
vn 0.5714 -0.7554 -0.3207
vn 0.5714 -0.6247 -0.5322
vn 0.7469 -0.5656 -0.3496
vn 0.4163 -0.8282 -0.3752
vn 0.2282 -0.8282 -0.5119
vn 0.4163 -0.7060 -0.5730
vn 0.1284 -0.7554 -0.6426
vn 0.1016 -0.5656 -0.8184
vn 0.3296 -0.6246 -0.7079
vn -0.1284 -0.7554 -0.6426
vn -0.3296 -0.6247 -0.7079
vn -0.1016 -0.5656 -0.8184
vn -0.2282 -0.8282 -0.5119
vn -0.4163 -0.8282 -0.3752
vn -0.4163 -0.7060 -0.5730
vn -0.5714 -0.7554 -0.3207
vn -0.7469 -0.5656 -0.3496
vn -0.5714 -0.6247 -0.5322
vn 0.1495 -0.6247 0.7665
vn 0.2738 -0.7554 0.5953
vn 0.3988 -0.5656 0.7218
vn -0.0000 -0.7060 0.7082
vn -0.1163 -0.8282 0.5482
vn 0.1163 -0.8282 0.5482
vn -0.1243 -0.9126 0.3896
vn -0.0000 -0.9849 0.1729
vn 0.1243 -0.9126 0.3896
vn -0.6508 -0.7554 -0.0764
vn -0.7751 -0.6247 0.0947
vn -0.8097 -0.5656 -0.1562
vn -0.5573 -0.8282 0.0589
vn -0.4855 -0.8282 0.2800
vn -0.6736 -0.7060 0.2189
vn -0.4816 -0.7554 0.4444
vn -0.5633 -0.5656 0.6023
vn -0.6828 -0.6247 0.3790
vn -0.3296 0.6247 0.7079
vn -0.1645 0.3927 0.9048
vn 0.7751 0.1947 0.6011
vn 0.7751 -0.1946 -0.6011
vn -0.3296 -0.6246 -0.7079
vn 0.3296 -0.6247 -0.7079
vn -0.1162 -0.8282 0.5482
vn 0.1162 -0.8282 0.5482
vt 0.947863 0.237790
vt 1.000000 0.228289
vt 0.998003 0.290357
vt 0.948653 0.309146
vt 0.938604 0.351033
vt 0.986340 0.367606
vt 0.987077 0.424064
vt 0.942538 0.416940
vt 0.025852 0.535852
vt 0.069160 0.555861
vt 0.044152 0.613295
vt 0.000337 0.601056
vt 0.034429 0.658989
vt 0.000000 0.667602
vt 0.892891 0.321324
vt 0.891106 0.243980
vt 0.839617 0.328763
vt 0.837749 0.247805
vt 0.889131 0.413051
vt 0.883937 0.341312
vt 0.836807 0.411262
vt 0.831371 0.336170
vt 0.945664 0.494095
vt 0.946483 0.570807
vt 0.935428 0.514217
vt 0.891619 0.496967
vt 0.839412 0.499099
vt 0.992397 0.490348
vt 0.995732 0.556579
vt 0.086777 0.769913
vt 0.032740 0.725546
vt 0.065262 0.694397
vt 0.115091 0.732322
vt 0.363095 0.724823
vt 0.316786 0.694388
vt 0.331741 0.640516
vt 0.377411 0.661660
vt 0.348423 0.578647
vt 0.393801 0.588884
vt 0.170390 0.757142
vt 0.150329 0.795728
vt 0.212667 0.765369
vt 0.215048 0.795951
vt 0.852392 0.521199
vt 0.481525 0.695036
vt 0.466191 0.767085
vt 0.466079 0.708862
vt 0.447269 0.600646
vt 0.430344 0.680025
vt 0.499241 0.611947
vt 0.421803 0.449747
vt 0.479531 0.449747
vt 0.464390 0.520499
vt 0.408703 0.515039
vt 0.533011 0.453997
vt 0.517163 0.528055
vt 0.358589 0.514722
vt 0.367263 0.457874
vt 0.316630 0.709400
vt 0.272581 0.763543
vt 0.250035 0.736174
vt 0.288379 0.686700
vt 0.320114 0.571997
vt 0.316630 0.528035
vt 0.227042 0.226043
vt 0.314077 0.211356
vt 0.321399 0.293493
vt 0.241403 0.313208
vt 0.326234 0.362111
vt 0.253078 0.385766
vt 0.386374 0.198954
vt 0.387755 0.275889
vt 0.373810 0.331056
vt 0.159130 0.320699
vt 0.139724 0.240589
vt 0.089974 0.325816
vt 0.066583 0.252570
vt 0.176049 0.387291
vt 0.120625 0.373506
vt 0.184824 0.620200
vt 0.241915 0.655452
vt 0.204976 0.709478
vt 0.149255 0.679846
vt 0.094719 0.643672
vt 0.124695 0.585490
vt -0.000000 0.262557
vt 0.022079 0.259565
vt 0.049328 0.338410
vt 0.029962 0.349888
vt 0.101540 0.399310
vt 0.087410 0.417254
vt 0.604954 0.468182
vt 0.588700 0.542695
vt 0.558534 0.534660
vt 0.574807 0.458618
vt 0.570349 0.627155
vt 0.540133 0.620799
vt 0.766446 0.588926
vt 0.742712 0.579597
vt 0.743911 0.500134
vt 0.766762 0.501119
vt 0.742712 0.419908
vt 0.764434 0.412636
vt 0.259665 0.429251
vt 0.338444 0.401799
vt 0.399321 0.349383
vt 0.798195 0.500629
vt 0.798172 0.590178
vt 0.839390 0.586313
vt 0.795520 0.410439
vt 0.795663 0.665360
vt 0.764282 0.662568
vt 0.552794 0.710934
vt 0.521942 0.706114
vt 0.506196 0.780094
vt 0.262095 0.449747
vt 0.169780 0.449747
vt 0.176175 0.429005
vt 0.764423 0.249144
vt 0.795811 0.250209
vt 0.797729 0.333336
vt 0.766605 0.330587
vt 0.758661 0.336963
vt 0.789938 0.333336
vt 0.449427 0.187205
vt 0.449312 0.279579
vt 0.429107 0.274736
vt 0.429478 0.191260
vt 0.416745 0.362037
vt 0.180399 0.936823
vt 0.163677 0.958925
vt 0.157556 0.932866
vt 0.175454 0.919269
vt 0.865729 0.587393
vt 0.871284 0.554767
vt 0.898911 0.572478
vt 0.897475 0.599970
vt 0.082092 0.960062
vt 0.058623 0.947616
vt 0.061375 0.928016
vt 0.083377 0.932355
vt 0.100119 0.973237
vt 0.100119 0.937285
vt 0.384697 0.683036
vt 0.076329 0.895541
vt 0.087869 0.895667
vt 0.395566 0.739538
vt 0.408635 0.753449
vt 0.365779 0.769398
vt 0.359229 0.758636
vt 0.116458 0.942052
vt 0.117688 0.918340
vt 0.138474 0.916661
vt 0.138418 0.932900
vt 0.406835 0.778468
vt 0.363820 0.786568
vt 0.103065 0.919510
vt 0.100119 0.889700
vt 0.117058 0.893637
vt 0.280263 0.889700
vt 0.280263 0.926089
vt 0.252652 0.930200
vt 0.253366 0.900174
vt 0.100119 0.948324
vt 0.420756 0.721294
vt 0.440678 0.734208
vt 0.146097 0.917475
vt 0.960264 0.602134
vt 0.949734 0.605723
vt 0.938706 0.588325
vt 0.951607 0.585313
vt 0.138878 0.899602
vt 0.343546 0.779518
vt 0.352897 0.764595
vt 0.353619 0.784914
vt 0.060804 0.895940
vt 0.939464 0.607245
vt 0.157556 0.896877
vt 0.171270 0.890651
vt 0.193652 0.917121
vt 0.184310 0.889700
vt 0.946201 0.580306
vt 0.154212 0.899359
vt 0.157556 0.917833
vt 0.350332 0.753574
vt 0.153481 0.935488
vt 0.074847 0.889700
vt 0.424736 0.704161
vt 0.452117 0.721859
vt 0.454525 0.764055
vt 0.440075 0.764275
vt 0.370601 0.728749
vt 0.390682 0.701839
vt 0.395458 0.719712
vt 0.386102 0.742150
vt 0.927077 0.531281
vt 0.938601 0.572474
vt 0.921795 0.579275
vt 0.917433 0.552594
vt 0.851333 0.585669
vt 0.859753 0.533830
vt 0.892328 0.522456
vt 0.892988 0.546137
vt 0.945835 0.158040
vt 0.995559 0.159315
vt 0.944513 0.082467
vt 0.991731 0.094275
vt 0.068651 0.481932
vt 0.105226 0.506795
vt 0.124933 0.449747
vt 0.137977 0.478425
vt 0.889834 0.157401
vt 0.836417 0.157180
vt 0.889328 0.075246
vt 0.835888 0.071186
vt 0.539677 0.031383
vt 0.552887 0.038844
vt 0.548372 0.078273
vt 0.945845 0.023645
vt 0.889845 0.011177
vt 0.595658 0.015222
vt 0.836428 0.004123
vt 0.494399 0.098032
vt 0.489554 0.057021
vt 0.255706 0.475339
vt 0.242448 0.510240
vt 0.184871 0.485827
vt 0.190902 0.449747
vt 0.995568 0.044010
vt 0.556058 0.143803
vt 0.503759 0.154514
vt 0.559648 0.218716
vt 0.509569 0.218785
vt 0.461123 0.177023
vt 0.449427 0.127874
vt 0.476333 0.218873
vt 0.648843 0.005705
vt 0.638649 0.020108
vt 0.667443 0.133360
vt 0.653462 0.116396
vt 0.659693 0.058824
vt 0.613429 0.137177
vt 0.616390 0.218684
vt 0.670544 0.218675
vt 0.548372 0.359595
vt 0.556058 0.293753
vt 0.613429 0.300326
vt 0.606024 0.371873
vt 0.667443 0.304132
vt 0.659693 0.379022
vt 0.494399 0.339917
vt 0.503759 0.283165
vt 0.449427 0.310232
vt 0.461123 0.260836
vt 0.212398 0.138737
vt 0.294405 0.131113
vt 0.199880 0.065758
vt 0.276697 0.064127
vt 0.362771 0.125602
vt 0.331692 0.077698
vt 0.132136 0.158319
vt 0.064991 0.175529
vt 0.126512 0.089307
vt 0.078506 0.120148
vt 0.217355 0.561096
vt 0.269031 0.597781
vt 0.289999 0.548571
vt 0.311109 0.629674
vt 0.316215 0.584804
vt 0.158774 0.531975
vt 0.000085 0.170168
vt 0.022334 0.176031
vt 0.032624 0.087695
vt 0.052004 0.101326
vt 0.732405 0.380221
vt 0.701715 0.383317
vt 0.709673 0.306421
vt 0.739899 0.304806
vt 0.712856 0.218675
vt 0.742713 0.218705
vt 0.187331 0.000015
vt 0.279618 0.000000
vt 0.275266 0.021762
vt 0.191893 0.021574
vt 0.361959 0.032478
vt 0.349784 0.051399
vt 0.732405 0.057688
vt 0.701715 0.054541
vt 0.690574 0.000000
vt 0.721180 0.004285
vt 0.763396 0.003709
vt 0.794455 -0.000000
vt 0.793900 0.068860
vt 0.763155 0.071309
vt 0.739899 0.132747
vt 0.709673 0.131074
vt 0.112997 0.048968
vt 0.100020 0.030112
vt 0.763385 0.157919
vt 0.794443 0.157157
vt 0.742712 0.242559
vt 0.742712 0.160053
vt 0.402113 0.112357
vt 0.419435 0.099859
vt 0.230050 0.931926
vt 0.231611 0.915683
vt 0.252652 0.924398
vt 0.251795 0.948596
vt 0.200291 0.925428
vt 0.230050 0.924232
vt 0.222816 0.951301
vt 0.193652 0.958244
vt 0.787376 0.746312
vt 0.800150 0.718341
vt 0.819911 0.721464
vt 0.812387 0.742029
vt 0.764146 0.743811
vt 0.782535 0.710113
vt 0.566440 0.124302
vt 0.814235 0.677838
vt 0.824631 0.686272
vt 0.590754 0.071548
vt 0.560751 0.045400
vt 0.570001 0.036321
vt 0.606903 0.060747
vt 0.005652 0.937220
vt 0.013940 0.909609
vt 0.030160 0.908544
vt 0.029299 0.934726
vt 0.570050 0.018942
vt 0.607970 0.035641
vt 0.028692 0.952437
vt 0.054039 0.936243
vt 0.058623 0.956477
vt 0.193652 0.889700
vt 0.223793 0.894887
vt -0.000000 0.956477
vt 0.609616 0.094471
vt 0.631565 0.086010
vt 0.029076 0.900680
vt 0.834822 0.668127
vt 0.828498 0.680004
vt 0.822912 0.665360
vt 0.047215 0.908676
vt 0.548160 0.021505
vt 0.559669 0.018406
vt 0.555724 0.038232
vt 0.836761 0.691535
vt 0.777960 0.695152
vt 0.812694 0.666875
vt 0.230050 0.889700
vt 0.245206 0.892525
vt 0.028327 0.889700
vt 0.046944 0.894518
vt 0.549364 0.048298
vt 0.010851 0.895849
vt 0.611199 0.112201
vt 0.641034 0.100586
vt 0.634230 0.056150
vt 0.647704 0.059338
vt 0.556771 0.076040
vt 0.575950 0.066332
vt 0.583187 0.090546
vt 0.575313 0.107076
vt 0.563878 0.044249
vt 0.577106 0.048810
vt 0.742713 0.735568
vt 0.755462 0.728299
vt 0.755627 0.759012
vt 0.789785 0.760490
vt 0.825834 0.755808
vt 0.632916 0.028042
vt 0.836761 0.765490
vt 0.792377 0.775751
vt 0.749547 0.766828
vt 0.051958 0.851281
vt 0.042866 0.855266
vt 0.038257 0.841427
vt 0.052906 0.841427
vt 0.068217 0.841427
vt 0.058934 0.856207
vt 0.047827 0.869533
vt 0.345649 0.869453
vt 0.337688 0.872433
vt 0.338495 0.859221
vt 0.349202 0.860307
vt 0.080836 0.831574
vt 0.080986 0.841427
vt 0.074172 0.826647
vt 0.078320 0.813321
vt 0.085961 0.827588
vt 0.033243 0.857370
vt 0.026621 0.849980
vt 0.030862 0.865342
vt 0.014834 0.858798
vt 0.021677 0.841428
vt 0.026621 0.832874
vt 0.013512 0.841428
vt 0.014834 0.824057
vt 0.033243 0.825484
vt 0.042866 0.827588
vt 0.030862 0.817513
vt 0.047827 0.813322
vt 0.328904 0.873158
vt 0.325683 0.865510
vt 0.334815 0.885049
vt 0.322878 0.879521
vt 0.310433 0.870988
vt 0.340848 0.813551
vt 0.336213 0.805788
vt 0.346239 0.807108
vt 0.348506 0.817665
vt 0.348266 0.831139
vt 0.336599 0.818334
vt 0.323301 0.807020
vt 0.533567 0.845004
vt 0.539292 0.853032
vt 0.528072 0.860337
vt 0.524699 0.846023
vt 0.523005 0.830116
vt 0.537389 0.836644
vt 0.552641 0.844350
vt 0.935389 0.851418
vt 0.943520 0.846032
vt 0.950880 0.858203
vt 0.936445 0.860737
vt 0.921040 0.861861
vt 0.927328 0.847129
vt 0.935408 0.831997
vt 0.701398 0.854950
vt 0.710179 0.851079
vt 0.715700 0.863985
vt 0.701125 0.864071
vt 0.685985 0.862369
vt 0.694177 0.849353
vt 0.704371 0.835982
vt 0.323270 0.856548
vt 0.329776 0.849104
vt 0.314428 0.854605
vt 0.318746 0.837670
vt 0.543343 0.799690
vt 0.538563 0.806170
vt 0.527195 0.803958
vt 0.538641 0.795951
vt 0.331765 0.799390
vt 0.322975 0.797092
vt 0.552528 0.799208
vt 0.552125 0.811191
vt 0.544305 0.861528
vt 0.539781 0.869231
vt 0.553496 0.861430
vt 0.553634 0.877250
vt 0.952412 0.841621
vt 0.960354 0.846976
vt 0.952863 0.832433
vt 0.969598 0.833914
vt 0.719658 0.848144
vt 0.726772 0.854512
vt 0.721567 0.839144
vt 0.738070 0.842955
vt 0.282348 0.828180
vt 0.282517 0.819132
vt 0.296048 0.818212
vt 0.290401 0.831424
vt 0.285468 0.846869
vt 0.276033 0.834263
vt 0.269456 0.821905
vt 0.588492 0.821098
vt 0.589845 0.830411
vt 0.577584 0.828160
vt 0.580524 0.816068
vt 0.581920 0.804672
vt 0.592960 0.818212
vt 0.431562 0.825315
vt 0.438188 0.819733
vt 0.444073 0.832954
vt 0.431401 0.834784
vt 0.450882 0.871028
vt 0.460231 0.874080
vt 0.457079 0.884167
vt 0.445295 0.875589
vt 0.434141 0.863824
vt 0.448382 0.862698
vt 0.464473 0.860759
vt 0.693627 0.797081
vt 0.702285 0.797628
vt 0.695936 0.808592
vt 0.686435 0.803536
vt 0.500865 0.867420
vt 0.501988 0.874733
vt 0.487549 0.881337
vt 0.492961 0.866764
vt 0.497481 0.850466
vt 0.506879 0.859533
vt 0.742563 0.807197
vt 0.749909 0.807482
vt 0.753232 0.820447
vt 0.741375 0.814891
vt 0.726446 0.810376
vt 0.735598 0.801304
vt 0.512436 0.819476
vt 0.510319 0.826311
vt 0.497481 0.816299
vt 0.506879 0.811247
vt 0.490584 0.832346
vt 0.485630 0.823761
vt 0.498788 0.833101
vt 0.485630 0.840585
vt 0.473967 0.831679
vt 0.506916 0.834170
vt 0.727426 0.795951
vt 0.718760 0.797820
vt 0.510319 0.843384
vt 0.710650 0.800594
vt 0.710344 0.808470
vt 0.512436 0.851833
vt 0.479012 0.847933
vt 0.481430 0.856482
vt 0.469377 0.845653
vt 0.483773 0.865344
vt 0.476467 0.871907
vt 0.469605 0.877168
vt 0.471593 0.884212
vt 0.935424 0.797220
vt 0.936600 0.804570
vt 0.922302 0.807184
vt 0.926539 0.795951
vt 0.460288 0.841793
vt 0.453345 0.847273
vt 0.459332 0.831962
vt 0.446325 0.853065
vt 0.438188 0.848804
vt 0.588784 0.839908
vt 0.593399 0.846426
vt 0.582754 0.858325
vt 0.580935 0.842486
vt 0.431562 0.844696
vt 0.460288 0.822412
vt 0.453345 0.818201
vt 0.464473 0.805476
vt 0.469377 0.818432
vt 0.446325 0.814303
vt 0.434140 0.808541
vt 0.448381 0.806002
vt 0.284932 0.810793
vt 0.279909 0.808184
vt 0.292838 0.797277
vt 0.294030 0.807005
vt 0.450881 0.799292
vt 0.460230 0.795951
vt 0.479012 0.816573
vt 0.481430 0.809442
vt 0.483772 0.802625
vt 0.476467 0.797244
vt 0.270114 0.841161
vt 0.271879 0.850912
vt 0.492961 0.802652
vt 0.274475 0.859733
vt 0.282746 0.862106
vt 0.281914 0.874863
vt 0.270769 0.866219
vt 0.261143 0.855224
vt 0.740563 0.823894
vt 0.747099 0.830932
vt 0.732597 0.826348
vt 0.723424 0.829344
vt 0.715758 0.822864
vt 0.708649 0.817291
vt 0.699475 0.821079
vt 0.968873 0.815019
vt 0.976360 0.821110
vt 0.961548 0.818397
vt 0.952790 0.803908
vt 0.968084 0.806335
vt 0.681105 0.811607
vt 0.684698 0.818029
vt 0.953080 0.822581
vt 0.944464 0.817439
vt 0.936494 0.813204
vt 0.928042 0.818401
vt 0.572824 0.874762
vt 0.567511 0.882100
vt 0.568543 0.868413
vt 0.581850 0.872781
vt 0.907879 0.813073
vt 0.911762 0.804456
vt 0.912691 0.818330
vt 0.563482 0.860819
vt 0.568047 0.851973
vt 0.571883 0.843605
vt 0.566108 0.835605
vt 0.571410 0.813171
vt 0.565854 0.819277
vt 0.567337 0.806321
vt 0.562535 0.799949
vt 0.313035 0.795951
vt 0.308224 0.800356
vt 0.567416 0.795951
vt 0.303809 0.805575
vt 0.309030 0.811802
vt 0.299628 0.833706
vt 0.306787 0.826894
vt 0.301953 0.842553
vt 0.304674 0.852214
vt 0.297799 0.859202
vt 0.291755 0.865260
vt 0.295039 0.873982
vt 0.690390 0.824097
vt 0.688369 0.833073
vt 0.674361 0.829789
vt 0.686905 0.842956
vt 0.679181 0.846258
vt 0.966769 0.853178
vt 0.974398 0.849768
vt 0.976360 0.864962
vt 0.963684 0.862264
vt 0.919471 0.823001
vt 0.918929 0.832135
vt 0.904232 0.831854
vt 0.919033 0.842176
vt 0.911749 0.847058
vt 0.905863 0.851283
vt 0.907736 0.860605
vt 0.534479 0.875200
vt 0.525490 0.872235
vt 0.538756 0.881938
vt 0.561145 0.827081
vt 0.551940 0.827187
vt 0.542006 0.827770
vt 0.537131 0.820074
vt 0.533079 0.813601
vt 0.524224 0.815489
vt 0.312891 0.819736
vt 0.321848 0.821597
vt 0.331201 0.824273
vt 0.334323 0.833649
vt 0.336534 0.842577
vt 0.344312 0.845888
vt 0.297389 0.881870
vt 0.306249 0.884118
vt 0.753232 0.837099
vt 0.751601 0.846157
vt 0.290659 0.885435
vt 0.315941 0.885435
vt 0.748763 0.855755
vt 0.752821 0.861495
vt 0.740510 0.873650
vt 0.740571 0.858952
vt 0.732327 0.861350
vt 0.727973 0.869626
vt 0.042811 0.798868
vt 0.052170 0.801707
vt 0.035910 0.803469
vt 0.702782 0.872362
vt 0.696254 0.875471
vt 0.712123 0.875534
vt 0.028574 0.809541
vt 0.019424 0.808833
vt 0.024937 0.795951
vt 0.011566 0.809034
vt 0.005544 0.816879
vt 0.958618 0.870118
vt 0.948907 0.870768
vt 0.962172 0.875178
vt -0.000000 0.824977
vt 0.002075 0.832748
vt 0.939224 0.869030
vt 0.933081 0.873547
vt 0.005441 0.841428
vt 0.002075 0.850107
vt 0.926704 0.877400
vt 0.917502 0.873476
vt -0.000000 0.857878
vt 0.005544 0.865976
vt 0.517668 0.867126
vt 0.516170 0.857891
vt 0.909699 0.868895
vt 0.011567 0.873821
vt 0.019425 0.874022
vt 0.517104 0.848463
vt 0.512694 0.841833
vt 0.028574 0.873313
vt 0.035911 0.879386
vt 0.024938 0.886904
vt 0.042811 0.883987
vt 0.052170 0.881147
vt 0.055435 0.889214
vt 0.040899 0.889701
vt 0.516616 0.817061
vt 0.512436 0.825264
vt 0.721897 0.876317
vt 0.724927 0.881403
vt 0.061526 0.804957
vt 0.063983 0.812603
vt 0.066004 0.821721
vt 0.058934 0.826647
vt 0.051958 0.831574
vt 0.061526 0.877897
vt 0.063983 0.870251
vt 0.078320 0.869533
vt 0.067185 0.881147
vt 0.066004 0.861134
vt 0.074172 0.856207
vt 0.080836 0.851280
vt 0.350365 0.850553
vt 0.085961 0.855266
vt 0.119204 0.825484
vt 0.128827 0.827588
vt 0.124218 0.841427
vt 0.112582 0.832874
vt 0.100795 0.824057
vt 0.116823 0.817513
vt 0.133787 0.813322
vt 0.800769 0.876317
vt 0.790994 0.875534
vt 0.794571 0.863985
vt 0.806844 0.869626
vt 0.819381 0.873650
vt 0.803798 0.881403
vt 0.147487 0.804957
vt 0.149944 0.812603
vt 0.138130 0.801707
vt 0.107638 0.841428
vt 0.112582 0.849980
vt 0.100795 0.858798
vt 0.099473 0.841428
vt 0.119204 0.857370
vt 0.128827 0.855266
vt 0.133788 0.869533
vt 0.116823 0.865342
vt 0.137919 0.851281
vt 0.138867 0.841427
vt 0.154178 0.841427
vt 0.144895 0.856207
vt 0.811198 0.861349
vt 0.805643 0.854512
vt 0.816941 0.842955
vt 0.819442 0.858952
vt 0.894641 0.853178
vt 0.891555 0.862264
vt 0.878751 0.858203
vt 0.888226 0.846976
vt 0.897470 0.833914
vt 0.902270 0.849768
vt 0.904232 0.864962
vt 0.615441 0.875200
vt 0.606453 0.872235
vt 0.609034 0.860337
vt 0.620743 0.869231
vt 0.634596 0.877250
vt 0.619718 0.881938
vt 0.833735 0.851283
vt 0.839620 0.847058
vt 0.848911 0.861861
vt 0.835607 0.860605
vt 0.614041 0.813601
vt 0.605187 0.815488
vt 0.608157 0.803958
vt 0.619525 0.806170
vt 0.633087 0.811191
vt 0.618093 0.820074
vt 0.603967 0.830116
vt 0.247313 0.842577
vt 0.255090 0.845888
vt 0.249273 0.859221
vt 0.240555 0.849104
vt 0.229524 0.837670
vt 0.245102 0.833649
vt 0.259044 0.831139
vt 0.798529 0.848144
vt 0.789050 0.851079
vt 0.783242 0.835982
vt 0.800438 0.839144
vt 0.880284 0.841621
vt 0.871391 0.846032
vt 0.863280 0.831997
vt 0.880735 0.832433
vt 0.625268 0.861528
vt 0.620254 0.853032
vt 0.633603 0.844350
vt 0.634458 0.861430
vt 0.624306 0.799690
vt 0.619603 0.795951
vt 0.242544 0.799390
vt 0.246992 0.805789
vt 0.234079 0.807020
vt 0.233754 0.797092
vt 0.633490 0.799208
vt 0.234049 0.856548
vt 0.236461 0.865510
vt 0.221211 0.870988
vt 0.225206 0.854605
vt 0.789521 0.800594
vt 0.789215 0.808470
vt 0.774808 0.808592
vt 0.781156 0.797628
vt 0.431401 0.851833
vt 0.425843 0.859533
vt 0.416445 0.850466
vt 0.429283 0.843383
vt 0.797631 0.797819
vt 0.805317 0.810376
vt 0.863296 0.797220
vt 0.864472 0.804569
vt 0.850173 0.807184
vt 0.854410 0.795951
vt 0.388569 0.877168
vt 0.379195 0.874080
vt 0.383437 0.860759
vt 0.395431 0.871907
vt 0.406513 0.881336
vt 0.390557 0.884212
vt 0.669747 0.839907
vt 0.661898 0.842486
vt 0.658547 0.828160
vt 0.670808 0.830411
vt 0.350526 0.844696
vt 0.350365 0.834784
vt 0.363038 0.832954
vt 0.357152 0.848804
vt 0.674361 0.846426
vt 0.663717 0.858325
vt 0.195710 0.810793
vt 0.204809 0.807005
vt 0.206826 0.818213
vt 0.193296 0.819132
vt 0.369845 0.799292
vt 0.379194 0.795951
vt 0.383437 0.805476
vt 0.367345 0.806002
vt 0.190687 0.808184
vt 0.203616 0.797277
vt 0.185254 0.859733
vt 0.193525 0.862106
vt 0.192692 0.874863
vt 0.181548 0.866219
vt 0.171922 0.855224
vt 0.182658 0.850912
vt 0.196246 0.846869
vt 0.397976 0.816573
vt 0.400394 0.809442
vt 0.416445 0.816299
vt 0.404594 0.823761
vt 0.392931 0.831679
vt 0.388341 0.818432
vt 0.402737 0.802624
vt 0.411925 0.802651
vt 0.395431 0.797243
vt 0.180892 0.841161
vt 0.186811 0.834263
vt 0.193126 0.828180
vt 0.201180 0.831424
vt 0.180235 0.821905
vt 0.379252 0.822412
vt 0.372309 0.818201
vt 0.378296 0.831962
vt 0.365289 0.814302
vt 0.357152 0.819732
vt 0.353105 0.808541
vt 0.669454 0.821098
vt 0.661487 0.816068
vt 0.662882 0.804672
vt 0.673922 0.818212
vt 0.350526 0.825315
vt 0.379252 0.841793
vt 0.372309 0.847273
vt 0.388341 0.845653
vt 0.365289 0.853065
vt 0.367346 0.862698
vt 0.353105 0.863824
vt 0.369846 0.871028
vt 0.364259 0.875589
vt 0.376043 0.884167
vt 0.397976 0.847932
vt 0.400395 0.856482
vt 0.404594 0.840584
vt 0.402737 0.865343
vt 0.411925 0.866764
vt 0.419829 0.867420
vt 0.420952 0.874733
vt 0.772498 0.797081
vt 0.765306 0.803536
vt 0.409548 0.832345
vt 0.417752 0.833101
vt 0.425880 0.834170
vt 0.429283 0.826310
vt 0.806297 0.795951
vt 0.814469 0.801304
vt 0.821434 0.807197
vt 0.820246 0.814891
vt 0.431401 0.819475
vt 0.425843 0.811246
vt 0.828780 0.807482
vt 0.832103 0.820447
vt 0.202534 0.865260
vt 0.208577 0.859202
vt 0.205817 0.873982
vt 0.215452 0.852214
vt 0.212731 0.842553
vt 0.210406 0.833706
vt 0.217566 0.826894
vt 0.214587 0.805575
vt 0.219003 0.800356
vt 0.219809 0.811802
vt 0.223814 0.795951
vt 0.643497 0.799949
vt 0.648378 0.795951
vt 0.648299 0.806321
vt 0.652372 0.813171
vt 0.646816 0.819277
vt 0.652846 0.843605
vt 0.649010 0.851973
vt 0.647070 0.835605
vt 0.644444 0.860819
vt 0.649506 0.868413
vt 0.653786 0.874762
vt 0.648473 0.882100
vt 0.662812 0.872781
vt 0.835751 0.813072
vt 0.839633 0.804456
vt 0.840562 0.818330
vt 0.864366 0.813204
vt 0.872336 0.817439
vt 0.855913 0.818401
vt 0.880661 0.803908
vt 0.880952 0.822581
vt 0.889420 0.818397
vt 0.896744 0.815019
vt 0.904232 0.821110
vt 0.895955 0.806335
vt 0.759976 0.811606
vt 0.763569 0.818029
vt 0.787521 0.817291
vt 0.794629 0.822864
vt 0.778346 0.821078
vt 0.802296 0.829344
vt 0.811468 0.826348
vt 0.819434 0.823894
vt 0.825970 0.830932
vt 0.223670 0.819736
vt 0.232627 0.821597
vt 0.241979 0.824273
vt 0.247378 0.818334
vt 0.251626 0.813551
vt 0.259285 0.817665
vt 0.257018 0.807108
vt 0.642108 0.827081
vt 0.632903 0.827187
vt 0.622968 0.827770
vt 0.618351 0.836644
vt 0.614530 0.845004
vt 0.605662 0.846023
vt 0.847342 0.823001
vt 0.846800 0.832135
vt 0.832103 0.831854
vt 0.846905 0.842176
vt 0.855199 0.847129
vt 0.863260 0.851418
vt 0.864316 0.860737
vt 0.769261 0.824097
vt 0.767240 0.833073
vt 0.753232 0.829789
vt 0.765776 0.842956
vt 0.758052 0.846258
vt 0.773048 0.849353
vt 0.764856 0.862368
vt 0.780269 0.854950
vt 0.779997 0.864071
vt 0.832103 0.837099
vt 0.830473 0.846157
vt 0.208168 0.881870
vt 0.201437 0.885435
vt 0.217028 0.884118
vt 0.827635 0.855755
vt 0.226720 0.885435
vt 0.233657 0.879521
vt 0.831692 0.861495
vt 0.239683 0.873158
vt 0.248467 0.872433
vt 0.245594 0.885049
vt 0.166797 0.851280
vt 0.160133 0.856207
vt 0.166947 0.841427
vt 0.261143 0.850553
vt 0.259980 0.860307
vt 0.171922 0.855266
vt 0.164281 0.869533
vt 0.151965 0.861134
vt 0.149944 0.870251
vt 0.147487 0.877897
vt 0.138131 0.881147
vt 0.153146 0.881147
vt 0.141396 0.889214
vt 0.128772 0.883987
vt 0.121872 0.879386
vt 0.126860 0.889701
vt 0.597578 0.817061
vt 0.593399 0.825264
vt 0.114535 0.873313
vt 0.110898 0.886904
vt 0.105385 0.874022
vt 0.097527 0.873821
vt 0.091505 0.865976
vt 0.598067 0.848463
vt 0.593657 0.841833
vt 0.597132 0.857891
vt 0.085961 0.857878
vt 0.088036 0.850107
vt 0.598630 0.867126
vt 0.837571 0.868895
vt 0.845374 0.873476
vt 0.091402 0.841428
vt 0.854576 0.877400
vt 0.860953 0.873547
vt 0.088036 0.832748
vt 0.085961 0.824977
vt 0.091504 0.816879
vt 0.867096 0.869030
vt 0.876778 0.870768
vt 0.166797 0.831574
vt 0.160132 0.826647
vt 0.164281 0.813321
vt 0.171922 0.827588
vt 0.256428 0.869453
vt 0.151965 0.821721
vt 0.144895 0.826647
vt 0.137919 0.831574
vt 0.097527 0.809034
vt 0.105385 0.808833
vt 0.886490 0.870118
vt 0.890044 0.875178
vt 0.114535 0.809541
vt 0.110898 0.795951
vt 0.121871 0.803469
vt 0.128772 0.798868
vt 0.781653 0.872362
vt 0.775125 0.875471
s 0
usemtl Body
f 110/1/1 111/2/1 2/3/1 1/4/1
f 1/5/2 2/6/2 52/7/2 53/8/2
f 111/9/3 165/10/3 37/11/3 2/12/3
f 2/12/4 37/11/4 64/13/4 52/14/4
f 110/1/5 1/4/5 3/15/5 113/16/5
f 113/16/6 3/15/6 62/17/6 194/18/6
f 1/5/7 53/8/7 54/19/7 3/20/7
f 3/20/8 54/19/8 67/21/8 62/22/8
f 5/23/9 4/24/9 107/25/9
f 5/23/10 8/26/10 54/19/10 53/8/10
f 8/26/11 5/23/11 107/25/11
f 8/26/12 59/27/12 67/21/12 54/19/12
f 4/24/13 5/23/13 9/28/13 6/29/13
f 6/30/14 9/31/14 44/32/14 45/33/14
f 5/23/15 53/8/15 52/7/15 9/28/15
f 9/31/16 52/14/16 64/13/16 44/32/16
f 4/34/17 6/35/17 10/36/17 7/37/17
f 7/37/18 10/36/18 55/38/18 56/39/18
f 6/30/19 45/33/19 46/40/19 10/41/19
f 10/41/20 46/40/20 66/42/20 55/43/20
f 59/27/21 8/26/21 108/44/21
f 61/45/22 60/46/22 109/47/22
f 7/37/23 56/39/23 57/48/23 11/49/23
f 11/49/24 57/48/24 68/50/24 61/45/24
f 124/51/25 127/52/25 13/53/25 12/54/25
f 12/54/26 13/53/26 57/48/26 56/39/26
f 127/52/27 190/55/27 58/56/27 13/53/27
f 13/53/28 58/56/28 68/50/28 57/48/28
f 124/51/29 12/54/29 14/57/29 126/58/29
f 126/59/30 14/60/30 51/61/30 182/62/30
f 12/54/31 56/39/31 55/38/31 14/57/31
f 14/57/32 55/38/32 66/63/32 51/64/32
f 130/65/33 133/66/33 16/67/33 15/68/33
f 15/68/34 16/67/34 43/69/34 42/70/34
f 133/66/35 164/71/35 36/72/35 16/67/35
f 16/67/36 36/72/36 63/73/36 43/69/36
f 130/65/37 15/68/37 17/74/37 132/75/37
f 132/75/38 17/74/38 50/76/38 179/77/38
f 15/68/39 42/70/39 41/78/39 17/74/39
f 17/74/40 41/78/40 65/79/40 50/76/40
f 136/80/41 139/81/41 19/82/41 18/83/41
f 18/83/42 19/82/42 46/40/42 45/33/42
f 139/81/43 182/62/43 51/61/43 19/82/43
f 19/82/44 51/61/44 66/42/44 46/40/44
f 136/80/45 18/83/45 20/84/45 138/85/45
f 138/85/46 20/84/46 37/11/46 165/10/46
f 18/83/47 45/33/47 44/32/47 20/84/47
f 20/84/48 44/32/48 64/13/48 37/11/48
f 142/86/49 145/87/49 22/88/49 21/89/49
f 21/89/50 22/88/50 49/90/50 48/91/50
f 145/87/51 179/77/51 50/76/51 22/88/51
f 22/88/52 50/76/52 65/79/52 49/90/52
f 142/92/53 21/93/53 23/94/53 144/95/53
f 144/95/54 23/94/54 58/56/54 190/55/54
f 21/93/55 48/96/55 47/97/55 23/94/55
f 23/94/56 47/97/56 68/50/56 58/56/56
f 24/98/57 28/99/57 29/100/57 25/101/57
f 25/101/58 29/100/58 40/102/58 39/103/58
f 28/104/59 42/70/59 43/69/59 29/105/59
f 29/105/60 43/69/60 63/73/60 40/106/60
f 24/98/61 25/101/61 30/107/61 26/108/61
f 26/108/62 30/107/62 59/27/62 60/109/62
f 25/101/63 39/103/63 38/110/63 30/107/63
f 30/107/64 38/110/64 67/21/64 59/27/64
f 24/98/65 26/108/65 31/111/65 27/112/65
f 27/113/66 31/114/66 47/97/66 48/96/66
f 26/115/67 60/46/67 61/45/67 31/114/67
f 31/114/68 61/45/68 68/50/68 47/97/68
f 24/116/69 27/117/69 32/118/69 28/104/69
f 28/104/70 32/118/70 41/78/70 42/70/70
f 27/117/71 48/91/71 49/90/71 32/118/71
f 32/118/72 49/90/72 65/79/72 41/78/72
f 157/119/73 158/120/73 34/121/73 33/122/73
f 33/123/74 34/124/74 38/110/74 39/103/74
f 158/120/75 194/18/75 62/17/75 34/121/75
f 34/124/76 62/22/76 67/21/76 38/110/76
f 157/125/77 33/126/77 35/127/77 160/128/77
f 160/128/78 35/127/78 36/72/78 164/71/78
f 33/126/79 39/129/79 40/106/79 35/127/79
f 35/127/80 40/106/80 63/73/80 36/72/80
f 74/130/81 76/131/81 84/132/81 82/133/81
f 75/134/82 73/135/82 81/136/82 83/137/82
f 71/138/83 70/139/83 79/140/83 80/141/83
f 73/142/84 71/138/84 80/141/84 81/143/84
f 60/109/85 59/27/85 108/44/85
f 11/49/86 61/45/86 109/47/86
f 4/34/87 7/37/87 106/144/87
f 7/37/88 11/49/88 106/144/88
f 81/143/89 80/141/89 87/145/89 89/146/89
f 84/147/90 85/148/90 93/149/90 92/150/90
f 79/151/91 78/152/91 72/153/91 86/154/91
f 85/148/92 83/155/92 91/156/92 93/149/92
f 69/157/93 74/158/93 82/159/93 78/152/93
f 77/160/94 75/161/94 83/162/94 85/163/94
f 70/164/95 69/157/95 78/152/95 79/151/95
f 76/165/96 77/166/96 85/148/96 84/147/96
f 72/153/97 97/167/97 86/154/97
f 88/168/98 95/169/98 89/170/98 96/171/98
f 72/153/99 90/172/99 97/167/99
f 88/173/100 94/174/100 93/149/100 95/175/100
f 80/141/101 79/140/101 86/176/101 87/145/101
f 83/137/102 81/136/102 89/170/102 91/177/102
f 82/133/103 84/132/103 92/178/103 90/179/103
f 78/180/104 82/133/104 90/179/104 72/181/104
f 96/171/105 89/170/105 87/182/105
f 89/170/106 95/169/106 91/177/106
f 97/167/107 90/172/107 94/183/107 88/184/107
f 94/174/108 90/185/108 92/150/108
f 95/175/109 93/149/109 91/156/109
f 93/149/110 94/174/110 92/150/110
f 86/154/111 97/167/111 88/184/111 96/186/111
f 96/187/112 87/145/112 86/176/112
f 98/188/113 101/189/113 77/166/113 76/165/113
f 101/189/114 99/190/114 75/191/114 77/166/114
f 104/192/115 102/193/115 74/194/115 69/195/115
f 103/196/116 104/197/116 69/198/116 70/199/116
f 102/193/117 98/188/117 76/165/117 74/194/117
f 99/200/118 100/201/118 73/135/118 75/134/118
f 105/202/119 103/196/119 70/199/119 71/203/119
f 100/201/120 105/202/120 71/203/120 73/135/120
f 106/144/121 102/193/121 104/192/121 4/34/121
f 106/144/122 11/49/122 98/188/122 102/193/122
f 109/47/123 101/189/123 98/188/123 11/49/123
f 109/47/124 60/46/124 99/190/124 101/189/124
f 107/25/125 4/24/125 104/197/125 103/196/125
f 108/44/126 100/201/126 99/200/126 60/109/126
f 107/25/127 103/196/127 105/202/127 8/26/127
f 108/44/128 8/26/128 105/202/128 100/201/128
f 110/1/129 112/204/129 114/205/129 111/2/129
f 112/204/130 184/206/130 183/207/130 114/205/130
f 111/9/131 114/208/131 166/209/131 165/10/131
f 114/208/132 183/210/132 197/211/132 166/209/132
f 110/1/133 113/16/133 115/212/133 112/204/133
f 113/16/134 194/18/134 195/213/134 115/212/134
f 112/204/135 115/212/135 185/214/135 184/206/135
f 115/212/136 195/213/136 200/215/136 185/214/136
f 117/216/137 240/217/137 116/218/137
f 117/219/138 184/206/138 185/214/138 120/220/138
f 120/221/139 240/217/139 117/216/139
f 120/220/140 185/214/140 200/215/140 191/222/140
f 116/218/141 118/223/141 121/224/141 117/216/141
f 118/225/142 174/226/142 173/227/142 121/228/142
f 117/219/143 121/229/143 183/207/143 184/206/143
f 121/228/144 173/227/144 197/211/144 183/210/144
f 116/218/145 119/230/145 122/231/145 118/223/145
f 119/230/146 187/232/146 186/233/146 122/231/146
f 118/223/147 122/231/147 175/234/147 174/235/147
f 122/231/148 186/233/148 199/236/148 175/234/148
f 191/237/149 241/238/149 120/221/149
f 193/239/150 242/240/150 192/241/150
f 119/230/151 123/242/151 188/243/151 187/232/151
f 123/242/152 193/239/152 201/244/152 188/243/152
f 124/245/153 125/246/153 128/247/153 127/248/153
f 125/246/154 187/232/154 188/243/154 128/247/154
f 127/248/155 128/247/155 189/249/155 190/250/155
f 128/247/156 188/243/156 201/244/156 189/249/156
f 124/245/157 126/251/157 129/252/157 125/246/157
f 126/251/158 182/253/158 181/254/158 129/252/158
f 125/246/159 129/252/159 186/233/159 187/232/159
f 129/252/160 181/254/160 199/236/160 186/233/160
f 130/65/161 131/255/161 134/256/161 133/66/161
f 131/255/162 171/257/162 172/258/162 134/256/162
f 133/66/163 134/256/163 163/259/163 164/71/163
f 134/256/164 172/258/164 196/260/164 163/259/164
f 130/65/165 132/75/165 135/261/165 131/255/165
f 132/75/166 179/77/166 180/262/166 135/261/166
f 131/255/167 135/261/167 170/263/167 171/257/167
f 135/261/168 180/262/168 198/264/168 170/263/168
f 136/80/169 137/265/169 140/266/169 139/81/169
f 137/265/170 174/226/170 175/267/170 140/266/170
f 139/81/171 140/266/171 181/268/171 182/62/171
f 140/266/172 175/267/172 199/269/172 181/268/172
f 136/80/173 138/85/173 141/270/173 137/265/173
f 138/85/174 165/10/174 166/209/174 141/270/174
f 137/265/175 141/270/175 173/227/175 174/226/175
f 141/270/176 166/209/176 197/211/176 173/227/176
f 142/86/177 143/271/177 146/272/177 145/87/177
f 143/271/178 177/273/178 178/274/178 146/272/178
f 145/87/179 146/272/179 180/262/179 179/77/179
f 146/272/180 178/274/180 198/264/180 180/262/180
f 142/275/181 144/276/181 147/277/181 143/278/181
f 144/276/182 190/250/182 189/249/182 147/277/182
f 143/278/183 147/277/183 176/279/183 177/280/183
f 147/277/184 189/249/184 201/244/184 176/279/184
f 148/281/185 149/282/185 153/283/185 152/284/185
f 149/282/186 168/285/186 169/286/186 153/283/186
f 152/284/187 153/283/187 172/258/187 171/257/187
f 153/283/188 169/286/188 196/260/188 172/258/188
f 148/287/189 150/288/189 154/289/189 149/290/189
f 150/288/190 192/241/190 191/237/190 154/289/190
f 149/291/191 154/292/191 167/293/191 168/294/191
f 154/292/192 191/222/192 200/215/192 167/293/192
f 148/287/193 151/295/193 155/296/193 150/288/193
f 151/295/194 177/280/194 176/279/194 155/296/194
f 150/288/195 155/296/195 193/239/195 192/241/195
f 155/296/196 176/279/196 201/244/196 193/239/196
f 148/281/197 152/284/197 156/297/197 151/298/197
f 152/284/198 171/257/198 170/263/198 156/297/198
f 151/298/199 156/297/199 178/274/199 177/273/199
f 156/297/200 170/263/200 198/264/200 178/274/200
f 157/119/201 159/299/201 161/300/201 158/120/201
f 159/299/202 168/294/202 167/293/202 161/300/202
f 158/120/203 161/300/203 195/213/203 194/18/203
f 161/300/204 167/293/204 200/215/204 195/213/204
f 157/119/205 160/301/205 162/302/205 159/299/205
f 160/128/206 164/71/206 163/259/206 162/303/206
f 159/304/207 162/303/207 169/286/207 168/285/207
f 162/303/208 163/259/208 196/260/208 169/286/208
f 207/305/209 215/306/209 217/307/209 209/308/209
f 208/309/210 216/310/210 214/311/210 206/312/210
f 204/313/211 213/314/211 212/315/211 203/316/211
f 206/317/212 214/318/212 213/314/212 204/313/212
f 192/241/213 241/238/213 191/237/213
f 123/242/214 242/240/214 193/239/214
f 116/218/215 239/319/215 119/230/215
f 119/230/216 239/319/216 123/242/216
f 214/318/217 222/320/217 220/321/217 213/314/217
f 217/322/218 225/323/218 226/324/218 218/325/218
f 212/326/219 219/327/219 205/328/219 211/329/219
f 218/325/220 226/324/220 224/330/220 216/331/220
f 202/332/221 211/329/221 215/333/221 207/334/221
f 210/335/222 218/336/222 216/310/222 208/309/222
f 203/337/223 212/326/223 211/329/223 202/332/223
f 209/338/224 217/322/224 218/325/224 210/339/224
f 205/328/225 219/327/225 230/340/225
f 221/341/226 229/342/226 222/320/226 228/343/226
f 205/328/227 230/340/227 223/344/227
f 221/345/228 228/346/228 226/324/228 227/347/228
f 213/314/229 220/321/229 219/348/229 212/315/229
f 216/349/230 224/350/230 222/320/230 214/318/230
f 215/306/231 223/351/231 225/352/231 217/307/231
f 211/329/232 205/328/232 223/344/232 215/333/232
f 229/342/233 220/321/233 222/320/233
f 222/320/234 224/350/234 228/343/234
f 230/340/235 221/353/235 227/354/235 223/344/235
f 227/347/236 225/323/236 223/355/236
f 228/346/237 224/330/237 226/324/237
f 226/324/238 225/323/238 227/347/238
f 219/327/239 229/356/239 221/353/239 230/340/239
f 229/342/240 219/348/240 220/321/240
f 231/357/241 209/338/241 210/339/241 234/358/241
f 234/358/242 210/339/242 208/359/242 232/360/242
f 237/361/243 202/362/243 207/363/243 235/364/243
f 236/365/244 203/366/244 202/362/244 237/361/244
f 235/364/245 207/363/245 209/338/245 231/357/245
f 232/367/246 208/368/246 206/317/246 233/369/246
f 238/370/247 204/313/247 203/316/247 236/371/247
f 233/369/248 206/317/248 204/313/248 238/370/248
f 239/319/249 116/218/249 237/361/249 235/364/249
f 239/319/250 235/364/250 231/357/250 123/242/250
f 242/240/251 123/242/251 231/357/251 234/358/251
f 242/240/252 234/358/252 232/360/252 192/241/252
f 240/217/253 236/365/253 237/361/253 116/218/253
f 241/238/254 192/241/254 232/360/254 233/372/254
f 240/373/255 120/374/255 238/370/255 236/371/255
f 241/375/256 233/369/256 238/370/256 120/374/256
usemtl Eyes
f 243/376/257 323/377/257 443/378/257 354/379/257
f 243/376/258 354/379/258 456/380/258 441/381/258
f 243/376/259 441/381/259 455/382/259 323/377/259
f 244/383/260 326/384/260 444/385/260 324/386/260
f 244/387/261 324/388/261 456/380/261 438/389/261
f 244/387/262 438/389/262 458/390/262 326/391/262
f 245/392/263 328/393/263 443/378/263 323/377/263
f 245/392/264 323/377/264 455/382/264 435/394/264
f 245/392/265 435/394/265 460/395/265 328/393/265
f 246/396/266 330/397/266 443/378/266 328/393/266
f 246/396/267 328/393/267 460/395/267 432/398/267
f 246/396/268 432/398/268 462/399/268 330/397/268
f 247/400/269 357/401/269 443/378/269 330/397/269
f 247/400/270 330/397/270 462/399/270 429/402/270
f 247/400/271 429/402/271 459/403/271 357/401/271
f 248/404/272 333/405/272 444/385/272 326/384/272
f 248/404/273 326/384/273 458/406/273 426/407/273
f 248/404/274 426/407/274 465/408/274 333/405/274
f 249/409/275 335/410/275 445/411/275 325/412/275
f 249/409/276 325/412/276 457/413/276 423/414/276
f 249/409/277 423/414/277 467/415/277 335/410/277
f 250/416/278 337/417/278 446/418/278 329/419/278
f 250/416/279 329/419/279 461/420/279 420/421/279
f 250/416/280 420/421/280 469/422/280 337/417/280
f 251/423/281 339/424/281 447/425/281 331/426/281
f 251/423/282 331/426/282 463/427/282 417/428/282
f 251/423/283 417/428/283 471/429/283 339/424/283
f 252/430/284 341/431/284 448/432/284 332/433/284
f 252/430/285 332/433/285 464/434/285 414/435/285
f 252/430/286 414/435/286 473/436/286 341/431/286
f 253/437/287 366/438/287 444/385/287 333/405/287
f 253/437/288 333/405/288 465/408/288 411/439/288
f 253/437/289 411/439/289 468/440/289 366/438/289
f 254/441/290 368/442/290 445/443/290 335/444/290
f 254/445/291 335/410/291 467/415/291 408/446/291
f 254/441/292 408/447/292 470/448/292 368/442/292
f 255/449/293 370/450/293 446/418/293 337/417/293
f 255/449/294 337/417/294 469/422/294 405/451/294
f 255/449/295 405/451/295 472/452/295 370/450/295
f 256/453/296 372/454/296 447/425/296 339/424/296
f 256/453/297 339/424/297 471/429/297 402/455/297
f 256/453/298 402/455/298 474/456/298 372/454/298
f 257/457/299 364/458/299 448/432/299 341/431/299
f 257/457/300 341/431/300 473/436/300 399/459/300
f 257/457/301 399/459/301 466/460/301 364/458/301
f 258/461/302 348/462/302 449/463/302 343/464/302
f 258/461/303 343/464/303 475/465/303 396/466/303
f 258/461/304 396/466/304 480/467/304 348/462/304
f 259/468/305 350/469/305 450/470/305 344/471/305
f 259/468/306 344/471/306 476/472/306 393/473/306
f 259/474/307 393/475/307 482/476/307 350/477/307
f 260/478/308 351/479/308 451/480/308 345/481/308
f 260/478/309 345/481/309 477/482/309 390/483/309
f 260/478/310 390/483/310 483/484/310 351/479/310
f 261/485/311 352/486/311 452/487/311 346/488/311
f 261/489/312 346/490/312 478/491/312 387/492/312
f 261/489/313 387/492/313 484/493/313 352/494/313
f 262/495/314 379/496/314 453/497/314 347/498/314
f 262/495/315 347/498/315 479/499/315 384/500/315
f 262/501/316 384/502/316 481/503/316 379/504/316
f 263/505/317 349/506/317 481/503/317 383/507/317
f 263/505/318 383/507/318 484/493/318 382/508/318
f 263/505/319 382/508/319 454/509/319 349/506/319
f 264/510/320 383/507/320 481/503/320 384/502/320
f 264/511/321 384/500/321 479/499/321 385/512/321
f 264/510/322 385/513/322 484/493/322 383/507/322
f 265/514/323 385/512/323 479/499/323 377/515/323
f 265/514/324 377/515/324 452/487/324 352/486/324
f 265/516/325 352/494/325 484/493/325 385/513/325
f 266/517/326 382/508/326 484/493/326 386/518/326
f 266/517/327 386/518/327 483/484/327 381/519/327
f 266/517/328 381/519/328 454/509/328 382/508/328
f 267/520/329 386/518/329 484/493/329 387/492/329
f 267/520/330 387/492/330 478/491/330 388/521/330
f 267/520/331 388/521/331 483/484/331 386/518/331
f 268/522/332 388/521/332 478/491/332 376/523/332
f 268/524/333 376/525/333 451/526/333 351/527/333
f 268/522/334 351/479/334 483/484/334 388/521/334
f 269/528/335 381/519/335 483/484/335 389/529/335
f 269/528/336 389/529/336 482/476/336 380/530/336
f 269/528/337 380/530/337 454/509/337 381/519/337
f 270/531/338 389/529/338 483/484/338 390/483/338
f 270/531/339 390/483/339 477/482/339 391/532/339
f 270/531/340 391/532/340 482/476/340 389/529/340
f 271/533/341 391/534/341 477/535/341 375/536/341
f 271/533/342 375/536/342 450/470/342 350/469/342
f 271/537/343 350/477/343 482/476/343 391/532/343
f 272/538/344 380/530/344 482/476/344 392/539/344
f 272/538/345 392/539/345 480/540/345 378/541/345
f 272/538/346 378/541/346 454/509/346 380/530/346
f 273/542/347 392/539/347 482/476/347 393/475/347
f 273/542/348 393/475/348 476/543/348 394/544/348
f 273/542/349 394/544/349 480/540/349 392/539/349
f 274/545/350 394/546/350 476/547/350 374/548/350
f 274/545/351 374/548/351 449/463/351 348/462/351
f 274/549/352 348/550/352 480/540/352 394/544/352
f 275/551/353 378/541/353 480/540/353 395/552/353
f 275/551/354 395/552/354 481/503/354 349/506/354
f 275/551/355 349/506/355 454/509/355 378/541/355
f 276/553/356 395/552/356 480/540/356 396/554/356
f 276/555/357 396/466/357 475/465/357 397/556/357
f 276/553/358 397/557/358 481/503/358 395/552/358
f 277/558/359 397/556/359 475/465/359 373/559/359
f 277/558/360 373/559/360 453/560/360 379/561/360
f 277/558/361 379/561/361 481/562/361 397/556/361
f 278/563/362 334/564/362 466/460/362 398/565/362
f 278/563/363 398/565/363 479/499/363 347/498/363
f 278/563/364 347/498/364 453/497/364 334/564/364
f 279/566/365 398/565/365 466/460/365 399/459/365
f 279/566/366 399/459/366 473/436/366 400/567/366
f 279/566/367 400/567/367 479/499/367 398/565/367
f 280/568/368 400/567/368 473/436/368 371/569/368
f 280/568/369 371/569/369 452/487/369 377/515/369
f 280/568/370 377/515/370 479/499/370 400/567/370
f 281/570/371 342/571/371 474/456/371 401/572/371
f 281/570/372 401/572/372 478/573/372 346/574/372
f 281/575/373 346/488/373 452/487/373 342/576/373
f 282/577/374 401/572/374 474/456/374 402/455/374
f 282/577/375 402/455/375 471/429/375 403/578/375
f 282/577/376 403/578/376 478/573/376 401/572/376
f 283/579/377 403/578/377 471/429/377 369/580/377
f 283/579/378 369/580/378 451/526/378 376/525/378
f 283/579/379 376/525/379 478/573/379 403/578/379
f 284/581/380 340/582/380 472/452/380 404/583/380
f 284/581/381 404/583/381 477/535/381 345/584/381
f 284/585/382 345/586/382 451/526/382 340/587/382
f 285/588/383 404/583/383 472/452/383 405/451/383
f 285/588/384 405/451/384 469/422/384 406/589/384
f 285/588/385 406/589/385 477/535/385 404/583/385
f 286/590/386 406/589/386 469/422/386 367/591/386
f 286/590/387 367/591/387 450/470/387 375/536/387
f 286/590/388 375/536/388 477/535/388 406/589/388
f 287/592/389 338/593/389 470/448/389 407/594/389
f 287/592/390 407/594/390 476/472/390 344/471/390
f 287/592/391 344/471/391 450/470/391 338/593/391
f 288/595/392 407/594/392 470/448/392 408/447/392
f 288/596/393 408/446/393 467/415/393 409/597/393
f 288/595/394 409/598/394 476/472/394 407/594/394
f 289/599/395 409/597/395 467/415/395 365/600/395
f 289/599/396 365/600/396 449/463/396 374/548/396
f 289/599/397 374/548/397 476/547/397 409/597/397
f 290/601/398 336/602/398 468/440/398 410/603/398
f 290/601/399 410/603/399 475/465/399 343/464/399
f 290/601/400 343/464/400 449/463/400 336/602/400
f 291/604/401 410/603/401 468/440/401 411/439/401
f 291/604/402 411/439/402 465/408/402 412/605/402
f 291/604/403 412/605/403 475/465/403 410/603/403
f 292/606/404 412/605/404 465/408/404 363/607/404
f 292/606/405 363/607/405 453/560/405 373/559/405
f 292/606/406 373/559/406 475/465/406 412/605/406
f 293/608/407 371/569/407 473/436/407 413/609/407
f 293/608/408 413/609/408 474/610/408 342/576/408
f 293/608/409 342/576/409 452/487/409 371/569/409
f 294/611/410 413/609/410 473/436/410 414/435/410
f 294/611/411 414/435/411 464/434/411 415/612/411
f 294/611/412 415/612/412 474/610/412 413/609/412
f 295/613/413 415/614/413 464/615/413 362/616/413
f 295/613/414 362/616/414 447/425/414 372/454/414
f 295/613/415 372/454/415 474/456/415 415/614/415
f 296/617/416 369/580/416 471/429/416 416/618/416
f 296/617/417 416/618/417 472/619/417 340/587/417
f 296/617/418 340/587/418 451/526/418 369/580/418
f 297/620/419 416/618/419 471/429/419 417/428/419
f 297/620/420 417/428/420 463/427/420 418/621/420
f 297/620/421 418/621/421 472/619/421 416/618/421
f 298/622/422 418/621/422 463/427/422 361/623/422
f 298/624/423 361/625/423 446/418/423 370/450/423
f 298/624/424 370/450/424 472/452/424 418/626/424
f 299/627/425 367/591/425 469/422/425 419/628/425
f 299/627/426 419/628/426 470/448/426 338/593/426
f 299/627/427 338/593/427 450/470/427 367/591/427
f 300/629/428 419/628/428 469/422/428 420/421/428
f 300/629/429 420/421/429 461/420/429 421/630/429
f 300/629/430 421/630/430 470/448/430 419/628/430
f 301/631/431 421/630/431 461/420/431 359/632/431
f 301/631/432 359/632/432 445/443/432 368/442/432
f 301/631/433 368/442/433 470/448/433 421/630/433
f 302/633/434 365/600/434 467/415/434 422/634/434
f 302/633/435 422/634/435 468/440/435 336/602/435
f 302/633/436 336/602/436 449/463/436 365/600/436
f 303/635/437 422/634/437 467/415/437 423/414/437
f 303/635/438 423/414/438 457/413/438 424/636/438
f 303/635/439 424/636/439 468/440/439 422/634/439
f 304/637/440 424/636/440 457/413/440 355/638/440
f 304/637/441 355/638/441 444/385/441 366/438/441
f 304/637/442 366/438/442 468/440/442 424/636/442
f 305/639/443 363/607/443 465/408/443 425/640/443
f 305/641/444 425/642/444 466/460/444 334/564/444
f 305/639/445 334/643/445 453/560/445 363/607/445
f 306/644/446 425/640/446 465/408/446 426/407/446
f 306/645/447 426/646/447 458/647/447 427/648/447
f 306/645/448 427/648/448 466/460/448 425/642/448
f 307/649/449 427/648/449 458/647/449 356/650/449
f 307/649/450 356/650/450 448/432/450 364/458/450
f 307/649/451 364/458/451 466/460/451 427/648/451
f 308/651/452 327/652/452 459/403/452 428/653/452
f 308/654/453 428/655/453 464/434/453 332/433/453
f 308/654/454 332/433/454 448/432/454 327/656/454
f 309/657/455 428/653/455 459/403/455 429/402/455
f 309/657/456 429/402/456 462/399/456 430/658/456
f 309/657/457 430/658/457 464/659/457 428/653/457
f 310/660/458 430/658/458 462/399/458 360/661/458
f 310/662/459 360/663/459 447/425/459 362/616/459
f 310/662/460 362/616/460 464/615/460 430/664/460
f 311/665/461 360/661/461 462/399/461 431/666/461
f 311/667/462 431/668/462 463/427/462 331/426/462
f 311/667/463 331/426/463 447/425/463 360/663/463
f 312/669/464 431/666/464 462/399/464 432/398/464
f 312/669/465 432/398/465 460/395/465 433/670/465
f 312/671/466 433/672/466 463/427/466 431/668/466
f 313/673/467 433/670/467 460/395/467 358/674/467
f 313/675/468 358/676/468 446/418/468 361/625/468
f 313/677/469 361/623/469 463/427/469 433/672/469
f 314/678/470 358/674/470 460/395/470 434/679/470
f 314/680/471 434/681/471 461/420/471 329/419/471
f 314/680/472 329/419/472 446/418/472 358/676/472
f 315/682/473 434/679/473 460/395/473 435/394/473
f 315/682/474 435/394/474 455/382/474 436/683/474
f 315/682/475 436/683/475 461/684/475 434/679/475
f 316/685/476 436/683/476 455/382/476 353/686/476
f 316/685/477 353/686/477 445/687/477 359/688/477
f 316/689/478 359/632/478 461/420/478 436/690/478
f 317/691/479 356/650/479 458/647/479 437/692/479
f 317/693/480 437/694/480 459/403/480 327/652/480
f 317/691/481 327/656/481 448/432/481 356/650/481
f 318/695/482 437/694/482 458/390/482 438/389/482
f 318/695/483 438/389/483 456/380/483 439/696/483
f 318/695/484 439/696/484 459/403/484 437/694/484
f 319/697/485 439/696/485 456/380/485 354/379/485
f 319/697/486 354/379/486 443/378/486 357/401/486
f 319/697/487 357/401/487 459/403/487 439/696/487
f 320/698/488 353/686/488 455/382/488 440/699/488
f 320/698/489 440/699/489 457/700/489 325/701/489
f 320/698/490 325/701/490 445/687/490 353/686/490
f 321/702/491 440/699/491 455/382/491 441/381/491
f 321/702/492 441/381/492 456/380/492 442/703/492
f 321/702/493 442/703/493 457/700/493 440/699/493
f 322/704/494 442/703/494 456/380/494 324/388/494
f 322/705/495 324/386/495 444/385/495 355/638/495
f 322/704/496 355/706/496 457/700/496 442/703/496
f 485/707/269 596/708/269 685/709/269 565/710/269
f 485/707/270 565/710/270 697/711/270 683/712/270
f 485/707/271 683/712/271 698/713/271 596/708/271
f 486/714/481 566/715/481 686/716/481 568/717/481
f 486/714/479 568/717/479 700/718/479 680/719/479
f 486/720/480 680/721/480 698/713/480 566/722/480
f 487/723/266 565/710/266 685/709/266 570/724/266
f 487/723/267 570/724/267 702/725/267 677/726/267
f 487/723/268 677/726/268 697/711/268 565/710/268
f 488/727/263 570/724/263 685/709/263 572/728/263
f 488/727/264 572/728/264 704/729/264 674/730/264
f 488/727/265 674/730/265 702/725/265 570/724/265
f 489/731/257 572/728/257 685/709/257 599/732/257
f 489/731/258 599/732/258 701/733/258 671/734/258
f 489/731/259 671/734/259 704/729/259 572/728/259
f 490/735/450 568/717/450 686/716/450 575/736/450
f 490/735/451 575/736/451 707/737/451 668/738/451
f 490/735/449 668/738/449 700/718/449 568/717/449
f 491/739/414 567/740/414 687/741/414 577/742/414
f 491/739/415 577/742/415 709/743/415 665/744/415
f 491/739/413 665/744/413 699/745/413 567/740/413
f 492/746/423 571/747/423 688/748/423 579/749/423
f 492/746/424 579/749/424 711/750/424 662/751/424
f 492/752/422 662/753/422 703/754/422 571/755/422
f 493/756/432 573/757/432 689/758/432 581/759/432
f 493/756/433 581/759/433 713/760/433 659/761/433
f 493/756/431 659/761/431 705/762/431 573/757/431
f 494/763/441 574/764/441 690/765/441 583/766/441
f 494/763/442 583/766/442 715/767/442 656/768/442
f 494/763/440 656/768/440 706/769/440 574/764/440
f 495/770/299 575/736/299 686/716/299 608/771/299
f 495/770/300 608/771/300 710/772/300 653/773/300
f 495/770/301 653/773/301 707/737/301 575/736/301
f 496/774/296 577/742/296 687/741/296 610/775/296
f 496/774/297 610/775/297 712/776/297 650/777/297
f 496/774/298 650/777/298 709/743/298 577/742/298
f 497/778/293 579/749/293 688/748/293 612/779/293
f 497/778/294 612/779/294 714/780/294 647/781/294
f 497/778/295 647/781/295 711/750/295 579/749/295
f 498/782/290 581/759/290 689/758/290 614/783/290
f 498/784/291 614/785/291 716/786/291 644/787/291
f 498/782/292 644/788/292 713/760/292 581/759/292
f 499/789/287 583/766/287 690/765/287 606/790/287
f 499/789/288 606/790/288 708/791/288 641/792/288
f 499/789/289 641/792/289 715/767/289 583/766/289
f 500/793/324 585/794/324 691/795/324 590/796/324
f 500/797/325 590/798/325 722/799/325 638/800/325
f 500/793/323 638/801/323 717/802/323 585/794/323
f 501/803/333 586/804/333 692/805/333 592/806/333
f 501/807/334 592/808/334 724/809/334 635/810/334
f 501/807/332 635/810/332 718/811/332 586/812/332
f 502/813/342 587/814/342 693/815/342 593/816/342
f 502/817/343 593/818/343 725/819/343 632/820/343
f 502/813/341 632/821/341 719/822/341 587/814/341
f 503/823/351 588/824/351 694/825/351 594/826/351
f 503/827/352 594/828/352 726/829/352 629/830/352
f 503/823/350 629/831/350 720/832/350 588/824/350
f 504/833/360 589/834/360 695/835/360 621/836/360
f 504/833/361 621/836/361 723/837/361 626/838/361
f 504/833/497 626/838/497 721/839/497 589/834/497
f 505/840/354 625/841/354 723/842/354 591/843/354
f 505/840/355 591/843/355 696/844/355 624/845/355
f 505/840/353 624/845/353 726/829/353 625/841/353
f 506/846/358 626/847/358 723/842/358 625/841/358
f 506/846/356 625/841/356 726/829/356 627/848/356
f 506/849/357 627/850/357 721/839/357 626/838/357
f 507/851/303 619/852/303 721/839/303 627/850/303
f 507/851/304 627/850/304 726/853/304 594/826/304
f 507/851/302 594/826/302 694/825/302 619/852/302
f 508/854/345 628/855/345 726/829/345 624/845/345
f 508/854/346 624/845/346 696/844/346 623/856/346
f 508/854/344 623/856/344 725/819/344 628/855/344
f 509/857/349 629/830/349 726/829/349 628/855/349
f 509/857/347 628/855/347 725/819/347 630/858/347
f 509/857/348 630/858/348 720/859/348 629/830/348
f 510/860/306 618/861/306 720/862/306 630/863/306
f 510/864/307 630/858/307 725/819/307 593/818/307
f 510/860/305 593/816/305 693/815/305 618/861/305
f 511/865/336 631/866/336 725/819/336 623/856/336
f 511/865/337 623/856/337 696/844/337 622/867/337
f 511/865/335 622/867/335 724/809/335 631/866/335
f 512/868/340 632/820/340 725/819/340 631/866/340
f 512/868/338 631/866/338 724/809/338 633/869/338
f 512/868/339 633/869/339 719/870/339 632/820/339
f 513/871/309 617/872/309 719/870/309 633/869/309
f 513/871/310 633/869/310 724/809/310 592/808/310
f 513/871/308 592/808/308 692/873/308 617/872/308
f 514/874/327 634/875/327 724/809/327 622/867/327
f 514/874/328 622/867/328 696/844/328 620/876/328
f 514/874/326 620/876/326 722/799/326 634/875/326
f 515/877/331 635/810/331 724/809/331 634/875/331
f 515/877/329 634/875/329 722/799/329 636/878/329
f 515/877/330 636/878/330 718/811/330 635/810/330
f 516/879/312 616/880/312 718/811/312 636/878/312
f 516/879/313 636/878/313 722/799/313 590/798/313
f 516/881/311 590/796/311 691/795/311 616/882/311
f 517/883/318 637/884/318 722/799/318 620/876/318
f 517/883/319 620/876/319 696/844/319 591/843/319
f 517/883/317 591/843/317 723/842/317 637/884/317
f 518/885/322 638/800/322 722/799/322 637/884/322
f 518/885/320 637/884/320 723/842/320 639/886/320
f 518/887/321 639/888/321 717/802/321 638/801/321
f 519/889/315 615/890/315 717/802/315 639/888/315
f 519/891/316 639/886/316 723/842/316 621/892/316
f 519/889/314 621/893/314 695/894/314 615/890/314
f 520/895/404 640/896/404 708/791/404 576/897/404
f 520/895/498 576/897/498 695/835/498 589/834/498
f 520/895/406 589/834/406 721/839/406 640/896/406
f 521/898/402 641/792/402 708/791/402 640/896/402
f 521/898/403 640/896/403 721/839/403 642/899/403
f 521/898/401 642/899/401 715/767/401 641/792/401
f 522/900/398 613/901/398 715/767/398 642/899/398
f 522/900/399 642/899/399 721/839/399 619/852/399
f 522/900/400 619/852/400 694/825/400 613/901/400
f 523/902/395 643/903/395 716/786/395 584/904/395
f 523/902/396 584/904/396 694/825/396 588/824/396
f 523/902/397 588/824/397 720/832/397 643/903/397
f 524/905/393 644/787/393 716/786/393 643/903/393
f 524/906/394 643/907/394 720/862/394 645/908/394
f 524/906/392 645/908/392 713/760/392 644/788/392
f 525/909/389 611/910/389 713/760/389 645/908/389
f 525/909/390 645/908/390 720/862/390 618/861/390
f 525/909/391 618/861/391 693/815/391 611/910/391
f 526/911/386 646/912/386 714/780/386 582/913/386
f 526/911/387 582/913/387 693/815/387 587/814/387
f 526/911/388 587/814/388 719/822/388 646/912/388
f 527/914/384 647/781/384 714/780/384 646/912/384
f 527/914/385 646/912/385 719/822/385 648/915/385
f 527/914/383 648/915/383 711/750/383 647/781/383
f 528/916/380 609/917/380 711/750/380 648/915/380
f 528/916/381 648/915/381 719/822/381 617/918/381
f 528/919/382 617/920/382 692/805/382 609/921/382
f 529/922/377 649/923/377 712/776/377 580/924/377
f 529/922/378 580/924/378 692/805/378 586/804/378
f 529/922/379 586/804/379 718/925/379 649/923/379
f 530/926/375 650/777/375 712/776/375 649/923/375
f 530/926/376 649/923/376 718/925/376 651/927/376
f 530/926/374 651/927/374 709/743/374 650/777/374
f 531/928/371 607/929/371 709/743/371 651/927/371
f 531/928/372 651/927/372 718/925/372 616/930/372
f 531/931/373 616/882/373 691/795/373 607/932/373
f 532/933/499 652/934/499 710/772/499 578/935/499
f 532/933/369 578/935/369 691/795/369 585/794/369
f 532/933/370 585/794/370 717/802/370 652/934/370
f 533/936/366 653/773/366 710/772/366 652/934/366
f 533/936/367 652/934/367 717/802/367 654/937/367
f 533/936/365 654/937/365 707/737/365 653/773/365
f 534/938/362 605/939/362 707/737/362 654/937/362
f 534/938/363 654/937/363 717/802/363 615/890/363
f 534/938/364 615/890/364 695/894/364 605/939/364
f 535/940/435 655/941/435 715/767/435 613/901/435
f 535/940/436 613/901/436 694/825/436 584/904/436
f 535/940/434 584/904/434 716/786/434 655/941/434
f 536/942/439 656/768/439 715/767/439 655/941/439
f 536/942/437 655/941/437 716/786/437 657/943/437
f 536/942/438 657/943/438 706/769/438 656/768/438
f 537/944/276 604/945/276 706/769/276 657/943/276
f 537/944/277 657/943/277 716/786/277 614/785/277
f 537/944/275 614/785/275 689/946/275 604/945/275
f 538/947/426 658/948/426 713/760/426 611/910/426
f 538/947/427 611/910/427 693/815/427 582/913/427
f 538/947/425 582/913/425 714/780/425 658/948/425
f 539/949/430 659/761/430 713/760/430 658/948/430
f 539/949/428 658/948/428 714/780/428 660/950/428
f 539/949/429 660/950/429 705/762/429 659/761/429
f 540/951/279 603/952/279 705/762/279 660/950/279
f 540/951/280 660/950/280 714/780/280 612/779/280
f 540/951/278 612/779/278 688/748/278 603/952/278
f 541/953/417 661/954/417 711/955/417 609/921/417
f 541/953/418 609/921/418 692/805/418 580/924/418
f 541/953/416 580/924/416 712/776/416 661/954/416
f 542/956/421 662/753/421 711/955/421 661/954/421
f 542/956/419 661/954/419 712/776/419 663/957/419
f 542/956/420 663/957/420 703/754/420 662/753/420
f 543/958/282 601/959/282 703/754/282 663/957/282
f 543/958/500 663/957/500 712/776/500 610/775/500
f 543/958/281 610/775/281 687/741/281 601/959/281
f 544/960/408 664/961/408 709/962/408 607/932/408
f 544/960/409 607/932/409 691/795/409 578/935/409
f 544/960/407 578/935/407 710/772/407 664/961/407
f 545/963/412 665/964/412 709/962/412 664/961/412
f 545/963/410 664/961/410 710/772/410 666/965/410
f 545/963/411 666/965/411 699/966/411 665/964/411
f 546/967/285 597/968/285 699/966/285 666/965/285
f 546/967/286 666/965/286 710/772/286 608/771/286
f 546/967/284 608/771/284 686/716/284 597/968/284
f 547/969/444 667/970/444 707/737/444 605/939/444
f 547/971/445 605/972/445 695/835/445 576/897/445
f 547/971/443 576/897/443 708/791/443 667/973/443
f 548/974/448 668/738/448 707/737/448 667/970/448
f 548/975/446 667/973/446 708/791/446 669/976/446
f 548/974/447 669/977/447 700/718/447 668/738/447
f 549/978/273 598/979/273 700/980/273 669/976/273
f 549/978/274 669/976/274 708/791/274 606/790/274
f 549/978/272 606/790/272 690/765/272 598/979/272
f 550/981/494 670/982/494 701/733/494 569/983/494
f 550/984/495 569/985/495 690/765/495 574/764/495
f 550/981/496 574/986/496 706/987/496 670/982/496
f 551/988/492 671/734/492 701/733/492 670/982/492
f 551/988/493 670/982/493 706/987/493 672/989/493
f 551/988/491 672/989/491 704/729/491 671/734/491
f 552/990/488 602/991/488 704/729/488 672/989/488
f 552/990/489 672/989/489 706/987/489 604/992/489
f 552/990/490 604/992/490 689/993/490 602/991/490
f 553/994/476 673/995/476 704/729/476 602/991/476
f 553/994/477 602/991/477 689/993/477 573/996/477
f 553/997/478 573/757/478 705/762/478 673/998/478
f 554/999/474 674/730/474 704/729/474 673/995/474
f 554/999/475 673/995/475 705/1000/475 675/1001/475
f 554/999/473 675/1001/473 702/725/473 674/730/473
f 555/1002/470 600/1003/470 702/725/470 675/1001/470
f 555/1004/501 675/1005/501 705/762/501 603/952/501
f 555/1004/472 603/952/472 688/748/472 600/1006/472
f 556/1007/467 676/1008/467 702/725/467 600/1003/467
f 556/1009/468 600/1006/468 688/748/468 571/747/468
f 556/1010/502 571/755/502 703/754/502 676/1011/502
f 557/1012/465 677/726/465 702/725/465 676/1008/465
f 557/1013/466 676/1011/466 703/754/466 678/1014/466
f 557/1012/464 678/1015/464 697/711/464 677/726/464
f 558/1016/461 595/1017/461 697/711/461 678/1015/461
f 558/1018/462 678/1014/462 703/754/462 601/959/462
f 558/1018/463 601/959/463 687/741/463 595/1019/463
f 559/1020/262 679/1021/262 700/1022/262 598/1023/262
f 559/1024/260 598/979/260 690/765/260 569/985/260
f 559/1020/261 569/983/261 701/733/261 679/1021/261
f 560/1025/482 680/721/482 700/1022/482 679/1021/482
f 560/1025/503 679/1021/503 701/733/503 681/1026/503
f 560/1025/504 681/1026/504 698/713/504 680/721/504
f 561/1027/487 596/708/487 698/713/487 681/1026/487
f 561/1027/485 681/1026/485 701/733/485 599/732/485
f 561/1027/486 599/732/486 685/709/486 596/708/486
f 562/1028/458 682/1029/458 697/711/458 595/1017/458
f 562/1030/459 595/1019/459 687/741/459 567/740/459
f 562/1030/460 567/740/460 699/745/460 682/1031/460
f 563/1032/456 683/712/456 697/711/456 682/1029/456
f 563/1032/457 682/1029/457 699/1033/457 684/1034/457
f 563/1032/455 684/1034/455 698/713/455 683/712/455
f 564/1035/452 566/722/452 698/713/452 684/1034/452
f 564/1036/453 684/1037/453 699/966/453 597/968/453
f 564/1036/454 597/968/454 686/716/454 566/715/454

